<svg width="40" height="40" fill="none" xmlns="http://www.w3.org/2000/svg"><rect width="40" height="40" rx="20" fill="#F6705F"/><path d="M23.722 23.666l.467-.49-1.085-1.15-.467.49 1.085 1.15zm2.035-.695l1.96 1.123.735-1.424-1.96-1.123-.735 1.424zm2.337 3.355l-1.457 1.527 1.085 1.15 1.457-1.527-1.085-1.15zm-2.345 2.018c-1.487.146-5.334.016-9.499-4.35l-1.085 1.15c4.546 4.765 8.872 4.997 10.727 4.815l-.143-1.615zm-9.499-4.35c-3.97-4.16-4.628-7.661-4.71-9.18l-1.536.093c.103 1.91.918 5.79 5.161 10.238l1.085-1.15zm1.41-6.68l.295-.309-1.085-1.15-.294.308 1.084 1.15zm.529-4.239l-1.293-1.82-1.232.971 1.293 1.82 1.232-.97zm-5.643-2.217l-1.61 1.687 1.085 1.15 1.61-1.687-1.085-1.15zm4.572 5.88c-.542-.575-.544-.573-.544-.573l-.001.002-.003.003-.007.007-.014.015a1.169 1.169 0 00-.11.148c-.055.086-.115.2-.167.344-.104.293-.16.68-.09 1.157.138.936.749 2.172 2.314 3.812l1.085-1.15c-1.465-1.535-1.814-2.47-1.879-2.91-.03-.21.001-.313.01-.337.005-.015.008-.017.001-.007a.262.262 0 01-.032.042.274.274 0 01-.01.01c-.001.003-.003.004-.005.006l-.003.003-.001.002s-.002.001-.544-.574zm1.378 4.915c1.566 1.642 2.744 2.28 3.633 2.424.454.074.82.015 1.098-.094a1.542 1.542 0 00.43-.255.86.86 0 00.052-.049l.007-.007.003-.003.001-.001s.002-.002-.54-.577c-.543-.575-.542-.576-.542-.576l.002-.002.003-.003.005-.005.01-.01a.397.397 0 01.04-.034c.01-.006.007-.003-.008.003-.025.01-.126.043-.328.01-.424-.068-1.317-.436-2.781-1.97l-1.085 1.15zm-1.6-10.399c-1.046-1.472-3.101-1.705-4.35-.396l1.085 1.15c.545-.572 1.514-.514 2.033.218l1.232-.972zm-5.356 3.56c-.02-.374.143-.764.481-1.12l-1.085-1.149c-.55.578-.984 1.395-.932 2.362l1.536-.092zm15.097 13.039c-.282.295-.584.462-.888.491l.143 1.615c.753-.074 1.37-.475 1.83-.956l-1.085-1.15zm-8.682-10.848c1.01-1.058 1.084-2.732.234-3.93l-1.232.972c.414.583.353 1.347-.087 1.808l1.085 1.15zm9.762 7.09c.838.48.97 1.61.377 2.23l1.085 1.15c1.374-1.44.95-3.844-.727-4.805l-.735 1.424zm-3.528-.918c.394-.413 1.027-.515 1.569-.206l.734-1.424c-1.111-.637-2.49-.461-3.388.48l1.085 1.15z" fill="#fff"/></svg>