<svg width="280" height="280" viewBox="0 0 280 280" fill="none" xmlns="http://www.w3.org/2000/svg">
<g filter="url(#filter0_d_105_520)">
<rect x="15" y="11" width="250" height="250" rx="125" fill="white"/>
<rect x="15.5" y="11.5" width="249" height="249" rx="124.5" stroke="#0077FF"/>
</g>
<path d="M131.535 133V106.6L133.255 108.48H125.215V105H135.495V133H131.535ZM147.94 133V106.6L149.66 108.48H141.62V105H151.9V133H147.94Z" fill="#0077FF"/>
<path d="M66.9031 164.98L67.0231 163.36C67.1165 163.373 67.2031 163.387 67.2831 163.4C67.3631 163.413 67.4365 163.42 67.5031 163.42C67.9298 163.42 68.2631 163.273 68.5031 162.98C68.7565 162.687 68.9431 162.3 69.0631 161.82C69.1831 161.327 69.2698 160.773 69.3231 160.16C69.3765 159.547 69.4165 158.933 69.4431 158.32L69.6231 154.4H77.7631V165H75.8431V155.52L76.3031 156.08H70.8631L71.3031 155.5L71.1631 158.44C71.1231 159.373 71.0498 160.247 70.9431 161.06C70.8365 161.873 70.6698 162.587 70.4431 163.2C70.2298 163.813 69.9298 164.293 69.5431 164.64C69.1698 164.987 68.6831 165.16 68.0831 165.16C67.9098 165.16 67.7231 165.14 67.5231 165.1C67.3365 165.073 67.1298 165.033 66.9031 164.98ZM86.9956 165.12C85.8623 165.12 84.8623 164.887 83.9956 164.42C83.1423 163.953 82.4756 163.313 81.9956 162.5C81.529 161.687 81.2956 160.753 81.2956 159.7C81.2956 158.647 81.5223 157.713 81.9756 156.9C82.4423 156.087 83.0756 155.453 83.8756 155C84.689 154.533 85.6023 154.3 86.6156 154.3C87.6423 154.3 88.549 154.527 89.3356 154.98C90.1223 155.433 90.7356 156.073 91.1756 156.9C91.629 157.713 91.8556 158.667 91.8556 159.76C91.8556 159.84 91.849 159.933 91.8356 160.04C91.8356 160.147 91.829 160.247 91.8156 160.34H82.7956V158.96H90.8156L90.0356 159.44C90.049 158.76 89.909 158.153 89.6156 157.62C89.3223 157.087 88.9156 156.673 88.3956 156.38C87.889 156.073 87.2956 155.92 86.6156 155.92C85.949 155.92 85.3556 156.073 84.8356 156.38C84.3156 156.673 83.909 157.093 83.6156 157.64C83.3223 158.173 83.1756 158.787 83.1756 159.48V159.8C83.1756 160.507 83.3356 161.14 83.6556 161.7C83.989 162.247 84.449 162.673 85.0356 162.98C85.6223 163.287 86.2956 163.44 87.0556 163.44C87.6823 163.44 88.249 163.333 88.7556 163.12C89.2756 162.907 89.729 162.587 90.1156 162.16L91.1756 163.4C90.6956 163.96 90.0956 164.387 89.3756 164.68C88.669 164.973 87.8756 165.12 86.9956 165.12ZM97.285 165V155.58L97.765 156.08H93.405V154.4H103.085V156.08H98.745L99.205 155.58V165H97.285ZM112.019 165V154.4H113.939V158.9H119.979V154.4H121.899V165H119.979V160.56H113.939V165H112.019ZM132.933 165V162.76L132.833 162.34V158.52C132.833 157.707 132.593 157.08 132.113 156.64C131.646 156.187 130.939 155.96 129.993 155.96C129.366 155.96 128.753 156.067 128.153 156.28C127.553 156.48 127.046 156.753 126.633 157.1L125.833 155.66C126.379 155.22 127.033 154.887 127.793 154.66C128.566 154.42 129.373 154.3 130.213 154.3C131.666 154.3 132.786 154.653 133.573 155.36C134.359 156.067 134.753 157.147 134.753 158.6V165H132.933ZM129.453 165.12C128.666 165.12 127.973 164.987 127.373 164.72C126.786 164.453 126.333 164.087 126.013 163.62C125.693 163.14 125.533 162.6 125.533 162C125.533 161.427 125.666 160.907 125.933 160.44C126.213 159.973 126.659 159.6 127.273 159.32C127.899 159.04 128.739 158.9 129.793 158.9H133.153V160.28H129.873C128.913 160.28 128.266 160.44 127.933 160.76C127.599 161.08 127.433 161.467 127.433 161.92C127.433 162.44 127.639 162.86 128.053 163.18C128.466 163.487 129.039 163.64 129.773 163.64C130.493 163.64 131.119 163.48 131.653 163.16C132.199 162.84 132.593 162.373 132.833 161.76L133.213 163.08C132.959 163.707 132.513 164.207 131.873 164.58C131.233 164.94 130.426 165.12 129.453 165.12ZM150.801 165.12C149.921 165.12 149.114 164.92 148.381 164.52C147.661 164.107 147.081 163.5 146.641 162.7C146.214 161.9 146.001 160.9 146.001 159.7C146.001 158.5 146.208 157.5 146.621 156.7C147.048 155.9 147.621 155.3 148.341 154.9C149.074 154.5 149.894 154.3 150.801 154.3C151.841 154.3 152.761 154.527 153.561 154.98C154.361 155.433 154.994 156.067 155.461 156.88C155.928 157.68 156.161 158.62 156.161 159.7C156.161 160.78 155.928 161.727 155.461 162.54C154.994 163.353 154.361 163.987 153.561 164.44C152.761 164.893 151.841 165.12 150.801 165.12ZM145.181 168.88V154.4H147.021V157.26L146.901 159.72L147.101 162.18V168.88H145.181ZM150.641 163.44C151.321 163.44 151.928 163.287 152.461 162.98C153.008 162.673 153.434 162.24 153.741 161.68C154.061 161.107 154.221 160.447 154.221 159.7C154.221 158.94 154.061 158.287 153.741 157.74C153.434 157.18 153.008 156.747 152.461 156.44C151.928 156.133 151.321 155.98 150.641 155.98C149.974 155.98 149.368 156.133 148.821 156.44C148.288 156.747 147.861 157.18 147.541 157.74C147.234 158.287 147.081 158.94 147.081 159.7C147.081 160.447 147.234 161.107 147.541 161.68C147.861 162.24 148.288 162.673 148.821 162.98C149.368 163.287 149.974 163.44 150.641 163.44ZM170.231 165V154.4H172.151V165H170.231ZM164.531 158C165.877 158.013 166.897 158.32 167.591 158.92C168.297 159.52 168.651 160.367 168.651 161.46C168.651 162.607 168.264 163.493 167.491 164.12C166.731 164.733 165.637 165.033 164.211 165.02L159.751 165V154.4H161.671V157.98L164.531 158ZM164.071 163.56C164.924 163.573 165.577 163.4 166.031 163.04C166.484 162.68 166.711 162.147 166.711 161.44C166.711 160.747 166.484 160.24 166.031 159.92C165.591 159.6 164.937 159.433 164.071 159.42L161.671 159.38V163.54L164.071 163.56ZM176.683 165V154.4H178.603V158.9H184.643V154.4H186.563V165H184.643V160.56H178.603V165H176.683ZM198.777 165L194.677 159.84L196.257 158.88L201.037 165H198.777ZM191.097 165V154.4H193.017V165H191.097ZM192.437 160.52V158.88H195.937V160.52H192.437ZM196.417 159.92L194.637 159.68L198.697 154.4H200.757L196.417 159.92ZM208.218 165.12C207.085 165.12 206.085 164.887 205.218 164.42C204.365 163.953 203.698 163.313 203.218 162.5C202.752 161.687 202.518 160.753 202.518 159.7C202.518 158.647 202.745 157.713 203.198 156.9C203.665 156.087 204.298 155.453 205.098 155C205.912 154.533 206.825 154.3 207.838 154.3C208.865 154.3 209.772 154.527 210.558 154.98C211.345 155.433 211.958 156.073 212.398 156.9C212.852 157.713 213.078 158.667 213.078 159.76C213.078 159.84 213.072 159.933 213.058 160.04C213.058 160.147 213.052 160.247 213.038 160.34H204.018V158.96H212.038L211.258 159.44C211.272 158.76 211.132 158.153 210.838 157.62C210.545 157.087 210.138 156.673 209.618 156.38C209.112 156.073 208.518 155.92 207.838 155.92C207.172 155.92 206.578 156.073 206.058 156.38C205.538 156.673 205.132 157.093 204.838 157.64C204.545 158.173 204.398 158.787 204.398 159.48V159.8C204.398 160.507 204.558 161.14 204.878 161.7C205.212 162.247 205.672 162.673 206.258 162.98C206.845 163.287 207.518 163.44 208.278 163.44C208.905 163.44 209.472 163.333 209.978 163.12C210.498 162.907 210.952 162.587 211.338 162.16L212.398 163.4C211.918 163.96 211.318 164.387 210.598 164.68C209.892 164.973 209.098 165.12 208.218 165.12Z" fill="#241D26"/>
<defs>
<filter id="filter0_d_105_520" x="0" y="0" width="280" height="280" filterUnits="userSpaceOnUse" color-interpolation-filters="sRGB">
<feFlood flood-opacity="0" result="BackgroundImageFix"/>
<feColorMatrix in="SourceAlpha" type="matrix" values="0 0 0 0 0 0 0 0 0 0 0 0 0 0 0 0 0 0 127 0" result="hardAlpha"/>
<feOffset dy="4"/>
<feGaussianBlur stdDeviation="7.5"/>
<feComposite in2="hardAlpha" operator="out"/>
<feColorMatrix type="matrix" values="0 0 0 0 0 0 0 0 0 0 0 0 0 0 0 0 0 0 0.1 0"/>
<feBlend mode="normal" in2="BackgroundImageFix" result="effect1_dropShadow_105_520"/>
<feBlend mode="normal" in="SourceGraphic" in2="effect1_dropShadow_105_520" result="shape"/>
</filter>
</defs>
</svg>
