<svg width="280" height="280" viewBox="0 0 280 280" fill="none" xmlns="http://www.w3.org/2000/svg">
<g filter="url(#filter0_d_105_517)">
<rect x="15" y="11" width="250" height="250" rx="125" fill="white"/>
<rect x="15.5" y="11.5" width="249" height="249" rx="124.5" stroke="#0077FF"/>
</g>
<path d="M130.496 127V124.28L141.896 113.28C142.909 112.32 143.656 111.48 144.136 110.76C144.642 110.013 144.976 109.333 145.136 108.72C145.322 108.08 145.416 107.467 145.416 106.88C145.416 105.44 144.909 104.307 143.896 103.48C142.882 102.653 141.402 102.24 139.456 102.24C137.962 102.24 136.616 102.493 135.416 103C134.216 103.48 133.176 104.24 132.296 105.28L129.576 102.92C130.642 101.56 132.069 100.52 133.856 99.8C135.669 99.0533 137.656 98.68 139.816 98.68C141.762 98.68 143.456 99 144.896 99.64C146.336 100.253 147.442 101.147 148.216 102.32C149.016 103.493 149.416 104.88 149.416 106.48C149.416 107.387 149.296 108.28 149.056 109.16C148.816 110.04 148.362 110.973 147.696 111.96C147.029 112.947 146.069 114.053 144.816 115.28L134.656 125.08L133.696 123.52H150.616V127H130.496Z" fill="#0077FF"/>
<path d="M62.2084 159V148.4H70.0084V150.08H63.6684L64.1284 149.64V159H62.2084ZM76.8453 159.12C75.7786 159.12 74.832 158.887 74.0053 158.42C73.1786 157.953 72.5253 157.313 72.0453 156.5C71.5653 155.673 71.3253 154.74 71.3253 153.7C71.3253 152.647 71.5653 151.713 72.0453 150.9C72.5253 150.087 73.1786 149.453 74.0053 149C74.832 148.533 75.7786 148.3 76.8453 148.3C77.8986 148.3 78.8386 148.533 79.6653 149C80.5053 149.453 81.1586 150.087 81.6253 150.9C82.1053 151.7 82.3453 152.633 82.3453 153.7C82.3453 154.753 82.1053 155.687 81.6253 156.5C81.1586 157.313 80.5053 157.953 79.6653 158.42C78.8386 158.887 77.8986 159.12 76.8453 159.12ZM76.8453 157.44C77.5253 157.44 78.132 157.287 78.6653 156.98C79.212 156.673 79.6386 156.24 79.9453 155.68C80.252 155.107 80.4053 154.447 80.4053 153.7C80.4053 152.94 80.252 152.287 79.9453 151.74C79.6386 151.18 79.212 150.747 78.6653 150.44C78.132 150.133 77.5253 149.98 76.8453 149.98C76.1653 149.98 75.5586 150.133 75.0253 150.44C74.492 150.747 74.0653 151.18 73.7453 151.74C73.4253 152.287 73.2653 152.94 73.2653 153.7C73.2653 154.447 73.4253 155.107 73.7453 155.68C74.0653 156.24 74.492 156.673 75.0253 156.98C75.5586 157.287 76.1653 157.44 76.8453 157.44ZM93.0797 158.1V150.08H88.4797L88.3797 152.12C88.353 152.787 88.3063 153.433 88.2397 154.06C88.1863 154.673 88.093 155.24 87.9597 155.76C87.8397 156.28 87.6597 156.707 87.4197 157.04C87.1797 157.373 86.8597 157.58 86.4597 157.66L84.5597 157.32C84.973 157.333 85.3063 157.2 85.5597 156.92C85.813 156.627 86.0063 156.227 86.1397 155.72C86.2863 155.213 86.393 154.64 86.4597 154C86.5263 153.347 86.5797 152.673 86.6197 151.98L86.7797 148.4H94.9997V158.1H93.0797ZM84.1397 161.46V157.32H96.6197V161.46H94.8197V159H85.9597V161.46H84.1397ZM106.421 159V156.76L106.321 156.34V152.52C106.321 151.707 106.081 151.08 105.601 150.64C105.134 150.187 104.428 149.96 103.481 149.96C102.854 149.96 102.241 150.067 101.641 150.28C101.041 150.48 100.534 150.753 100.121 151.1L99.3209 149.66C99.8676 149.22 100.521 148.887 101.281 148.66C102.054 148.42 102.861 148.3 103.701 148.3C105.154 148.3 106.274 148.653 107.061 149.36C107.848 150.067 108.241 151.147 108.241 152.6V159H106.421ZM102.941 159.12C102.154 159.12 101.461 158.987 100.861 158.72C100.274 158.453 99.8209 158.087 99.5009 157.62C99.1809 157.14 99.0209 156.6 99.0209 156C99.0209 155.427 99.1543 154.907 99.4209 154.44C99.7009 153.973 100.148 153.6 100.761 153.32C101.388 153.04 102.228 152.9 103.281 152.9H106.641V154.28H103.361C102.401 154.28 101.754 154.44 101.421 154.76C101.088 155.08 100.921 155.467 100.921 155.92C100.921 156.44 101.128 156.86 101.541 157.18C101.954 157.487 102.528 157.64 103.261 157.64C103.981 157.64 104.608 157.48 105.141 157.16C105.688 156.84 106.081 156.373 106.321 155.76L106.701 157.08C106.448 157.707 106.001 158.207 105.361 158.58C104.721 158.94 103.914 159.12 102.941 159.12ZM118.669 159V148.4H126.469V150.08H120.129L120.589 149.64V159H118.669ZM135.735 159V156.76L135.635 156.34V152.52C135.635 151.707 135.395 151.08 134.915 150.64C134.448 150.187 133.742 149.96 132.795 149.96C132.168 149.96 131.555 150.067 130.955 150.28C130.355 150.48 129.848 150.753 129.435 151.1L128.635 149.66C129.182 149.22 129.835 148.887 130.595 148.66C131.368 148.42 132.175 148.3 133.015 148.3C134.468 148.3 135.588 148.653 136.375 149.36C137.162 150.067 137.555 151.147 137.555 152.6V159H135.735ZM132.255 159.12C131.468 159.12 130.775 158.987 130.175 158.72C129.588 158.453 129.135 158.087 128.815 157.62C128.495 157.14 128.335 156.6 128.335 156C128.335 155.427 128.468 154.907 128.735 154.44C129.015 153.973 129.462 153.6 130.075 153.32C130.702 153.04 131.542 152.9 132.595 152.9H135.955V154.28H132.675C131.715 154.28 131.068 154.44 130.735 154.76C130.402 155.08 130.235 155.467 130.235 155.92C130.235 156.44 130.442 156.86 130.855 157.18C131.268 157.487 131.842 157.64 132.575 157.64C133.295 157.64 133.922 157.48 134.455 157.16C135.002 156.84 135.395 156.373 135.635 155.76L136.015 157.08C135.762 157.707 135.315 158.207 134.675 158.58C134.035 158.94 133.228 159.12 132.255 159.12ZM147.432 159.12C146.552 159.12 145.746 158.92 145.012 158.52C144.292 158.107 143.712 157.5 143.272 156.7C142.846 155.9 142.632 154.9 142.632 153.7C142.632 152.5 142.839 151.5 143.252 150.7C143.679 149.9 144.252 149.3 144.972 148.9C145.706 148.5 146.526 148.3 147.432 148.3C148.472 148.3 149.392 148.527 150.192 148.98C150.992 149.433 151.626 150.067 152.092 150.88C152.559 151.68 152.792 152.62 152.792 153.7C152.792 154.78 152.559 155.727 152.092 156.54C151.626 157.353 150.992 157.987 150.192 158.44C149.392 158.893 148.472 159.12 147.432 159.12ZM141.812 162.88V148.4H143.652V151.26L143.532 153.72L143.732 156.18V162.88H141.812ZM147.272 157.44C147.952 157.44 148.559 157.287 149.092 156.98C149.639 156.673 150.066 156.24 150.372 155.68C150.692 155.107 150.852 154.447 150.852 153.7C150.852 152.94 150.692 152.287 150.372 151.74C150.066 151.18 149.639 150.747 149.092 150.44C148.559 150.133 147.952 149.98 147.272 149.98C146.606 149.98 145.999 150.133 145.452 150.44C144.919 150.747 144.492 151.18 144.172 151.74C143.866 152.287 143.712 152.94 143.712 153.7C143.712 154.447 143.866 155.107 144.172 155.68C144.492 156.24 144.919 156.673 145.452 156.98C145.999 157.287 146.606 157.44 147.272 157.44ZM162.784 159V156.76L162.684 156.34V152.52C162.684 151.707 162.444 151.08 161.964 150.64C161.498 150.187 160.791 149.96 159.844 149.96C159.218 149.96 158.604 150.067 158.004 150.28C157.404 150.48 156.898 150.753 156.484 151.1L155.684 149.66C156.231 149.22 156.884 148.887 157.644 148.66C158.418 148.42 159.224 148.3 160.064 148.3C161.518 148.3 162.638 148.653 163.424 149.36C164.211 150.067 164.604 151.147 164.604 152.6V159H162.784ZM159.304 159.12C158.518 159.12 157.824 158.987 157.224 158.72C156.638 158.453 156.184 158.087 155.864 157.62C155.544 157.14 155.384 156.6 155.384 156C155.384 155.427 155.518 154.907 155.784 154.44C156.064 153.973 156.511 153.6 157.124 153.32C157.751 153.04 158.591 152.9 159.644 152.9H163.004V154.28H159.724C158.764 154.28 158.118 154.44 157.784 154.76C157.451 155.08 157.284 155.467 157.284 155.92C157.284 156.44 157.491 156.86 157.904 157.18C158.318 157.487 158.891 157.64 159.624 157.64C160.344 157.64 160.971 157.48 161.504 157.16C162.051 156.84 162.444 156.373 162.684 155.76L163.064 157.08C162.811 157.707 162.364 158.207 161.724 158.58C161.084 158.94 160.278 159.12 159.304 159.12ZM168.862 159V148.4H170.782V152.9H176.822V148.4H178.742V159H176.822V154.56H170.782V159H168.862ZM185.375 159V149.58L185.855 150.08H181.495V148.4H191.175V150.08H186.835L187.295 149.58V159H185.375ZM193.938 159V148.4H195.858V156.12L202.358 148.4H204.098V159H202.178V151.28L195.698 159H193.938ZM208.625 159V148.4H210.545V156.12L217.045 148.4H218.785V159H216.865V151.28L210.385 159H208.625Z" fill="#241D26"/>
<defs>
<filter id="filter0_d_105_517" x="0" y="0" width="280" height="280" filterUnits="userSpaceOnUse" color-interpolation-filters="sRGB">
<feFlood flood-opacity="0" result="BackgroundImageFix"/>
<feColorMatrix in="SourceAlpha" type="matrix" values="0 0 0 0 0 0 0 0 0 0 0 0 0 0 0 0 0 0 127 0" result="hardAlpha"/>
<feOffset dy="4"/>
<feGaussianBlur stdDeviation="7.5"/>
<feComposite in2="hardAlpha" operator="out"/>
<feColorMatrix type="matrix" values="0 0 0 0 0 0 0 0 0 0 0 0 0 0 0 0 0 0 0.1 0"/>
<feBlend mode="normal" in2="BackgroundImageFix" result="effect1_dropShadow_105_517"/>
<feBlend mode="normal" in="SourceGraphic" in2="effect1_dropShadow_105_517" result="shape"/>
</filter>
</defs>
</svg>
