<svg width="149" height="110" viewBox="0 0 149 110" fill="none" xmlns="http://www.w3.org/2000/svg">
<path d="M78.1823 20.4193C78.0439 20.9087 78.307 21.2527 78.7968 21.231C78.9617 21.22 79.4537 21.0657 79.905 20.8809C81.525 20.218 84.4434 19.5317 86.4859 19.3262C93.2823 18.6429 99.9176 20.4624 105.421 24.5046C106.19 25.0741 108.459 27.053 108.741 27.3984C108.808 27.4933 108.833 27.5772 108.793 27.5937C108.753 27.6102 107.795 27.6162 106.675 27.6138C105.543 27.6067 104.54 27.6406 104.444 27.6801C104.347 27.7197 104.209 27.8421 104.142 27.9542C103.979 28.1997 104.166 28.7253 104.459 28.8216C104.558 28.8564 105.993 28.8902 107.633 28.8965C110.725 28.9106 110.859 28.8934 110.988 28.4736C111.068 28.1867 111.054 22.5193 110.968 22.3097C110.843 22.0035 110.335 21.8442 110.083 22.0322C109.983 22.1106 109.869 22.2231 109.837 22.2832C109.806 22.3433 109.773 23.2976 109.772 24.3987C109.768 25.4919 109.759 26.4363 109.74 26.4817C109.721 26.5271 109.503 26.3623 109.252 26.1169C105.421 22.2748 100.139 19.4872 94.6892 18.4247C89.5466 17.4244 83.6045 17.9651 78.9589 19.8569C78.298 20.1273 78.2529 20.1552 78.1823 20.4193Z" fill="#F6705F"/>
<path d="M92.6242 18.9458C92.6242 18.9458 89.6389 17.0256 83.2562 19.4523C82.3626 19.7957 79.6481 21.0973 79.2836 21.3548C79.1937 21.4283 79.1472 21.5025 79.1817 21.5292C79.2161 21.5558 80.1371 21.8171 81.2178 22.114C82.3107 22.4093 83.2677 22.7094 83.3503 22.7734C83.4329 22.8374 83.5334 22.9922 83.568 23.1181C83.6596 23.3982 83.3391 23.8548 83.0305 23.8693C82.9259 23.8764 81.5342 23.5261 79.9522 23.0945C76.9684 22.2828 76.8438 22.2303 76.8313 21.7913C76.8306 21.4934 78.3577 16.0355 78.4963 15.8564C78.6988 15.5948 79.2304 15.5767 79.4235 15.8253C79.4985 15.9274 79.5783 16.0662 79.593 16.1326C79.6076 16.199 79.3845 17.1275 79.0914 18.1889C78.8036 19.2435 78.5598 20.1559 78.566 20.2048C78.5722 20.2537 78.8264 20.153 79.1338 19.9835C83.8516 17.3034 92.6242 18.9458 92.6242 18.9458Z" fill="#F6705F"/>
<path d="M15.5518 20.0525C9.97762 21.5573 6.74658 27.5136 8.2726 33.3192L24.1531 93.7347C25.6791 99.5401 31.4058 103.078 36.98 101.574L80.0466 89.9475C85.6207 88.4427 88.8518 82.4864 87.3257 76.6808L71.4452 16.2653C69.9192 10.4598 64.1925 6.92162 58.6183 8.42641L15.5518 20.0525ZM14.4826 15.985L57.5491 4.35892C65.1888 2.29654 73.1366 7.13699 75.265 15.2342L91.1455 75.6497C93.2739 83.7468 88.7554 91.9526 81.1157 94.015L38.0492 105.641C30.4095 107.703 22.4618 102.863 20.3334 94.7658L4.45285 34.3503C2.32446 26.2531 6.84293 18.0474 14.4826 15.985ZM22.9837 28.8299C20.0523 29.6213 18.3712 32.7452 19.1663 35.7702L20.4897 40.8048C21.2848 43.8298 24.2766 45.6923 27.2081 44.9009L60.7042 35.8585C63.6356 35.0671 65.3168 31.9432 64.5216 28.9181L63.1983 23.8835C62.4031 20.8586 59.4113 18.9961 56.4799 19.7874L22.9837 28.8299ZM21.9146 24.7624L55.4107 15.7199C60.4076 14.371 65.6205 17.5357 67.018 22.8524L68.3414 27.887C69.7389 33.2036 66.7703 38.577 61.7734 39.9259L28.2772 48.9684C23.2803 50.3174 18.0674 47.1527 16.6699 41.836L15.3466 36.8014C13.949 31.4847 16.9176 26.1114 21.9146 24.7624ZM25.0696 56.262L29.8548 54.9702C32.2089 54.3347 34.6869 55.8237 35.3535 58.3598C36.0201 60.8959 34.6015 63.4368 32.2474 64.0723L27.4622 65.3641C25.1081 65.9996 22.6301 64.5106 21.9634 61.9745C21.2968 59.4384 22.7155 56.8975 25.0696 56.262ZM44.2103 51.0948L48.9955 49.803C51.3496 49.1675 53.8276 50.6565 54.4942 53.1926C55.1608 55.7287 53.7422 58.2696 51.388 58.9052L46.6029 60.1969C44.2487 60.8325 41.7708 59.3434 41.1041 56.8074C40.4375 54.2713 41.8562 51.7303 44.2103 51.0948ZM63.351 45.9277L68.1362 44.6359C70.4903 44.0004 72.9683 45.4894 73.6349 48.0255C74.3015 50.5616 72.8828 53.1025 70.5287 53.738L65.7435 55.0298C63.3894 55.6653 60.9115 54.1763 60.2448 51.6402C59.5782 49.1041 60.9969 46.5632 63.351 45.9277ZM29.0398 71.3658L33.825 70.074C36.1791 69.4385 38.657 70.9276 39.3236 73.4636C39.9903 75.9997 38.5716 78.5407 36.2175 79.1762L31.4323 80.468C29.0782 81.1035 26.6002 79.6145 25.9336 77.0784C25.267 74.5423 26.6856 72.0013 29.0398 71.3658ZM48.1805 66.1987L52.9656 64.9069C55.3197 64.2714 57.7977 65.7604 58.4643 68.2965C59.131 70.8326 57.7123 73.3735 55.3581 74.009L50.573 75.3008C48.2189 75.9363 45.7409 74.4473 45.0743 71.9112C44.4076 69.3751 45.8263 66.8342 48.1805 66.1987ZM67.3211 61.0316L72.1063 59.7398C74.4604 59.1043 76.9384 60.5933 77.605 63.1294C78.2717 65.6654 76.853 68.2064 74.4988 68.8419L69.7137 70.1337C67.3595 70.7692 64.8816 69.2802 64.215 66.7441C63.5483 64.208 64.967 61.6671 67.3211 61.0316ZM33.0099 86.4697L37.7951 85.1779C40.1492 84.5424 42.6272 86.0314 43.2938 88.5675C43.9604 91.1036 42.5417 93.6445 40.1876 94.2801L35.4024 95.5718C33.0483 96.2073 30.5703 94.7183 29.9037 92.1822C29.2371 89.6462 30.6558 87.1052 33.0099 86.4697ZM52.1506 81.3026L56.9357 80.0108C59.2899 79.3753 61.7678 80.8643 62.4345 83.4004C63.1011 85.9365 61.6824 88.4774 59.3283 89.1129L54.5431 90.4047C52.189 91.0402 49.711 89.5512 49.0444 87.0151C48.3778 84.479 49.7964 81.9381 52.1506 81.3026ZM71.2912 76.1354L76.0764 74.8436C78.4305 74.2081 80.9085 75.6971 81.5752 78.2332C82.2418 80.7693 80.8231 83.3103 78.469 83.9458L73.6838 85.2376C71.3297 85.8731 68.8517 84.384 68.1851 81.848C67.5185 79.3119 68.9371 76.7709 71.2912 76.1354Z" fill="#F6705F" stroke="white"/>
<g clip-path="url(#clip0_107_624)">
<path d="M117.963 28.1256C113.085 28.7061 109.462 30.1071 105.666 32.9093C104.523 33.75 102.124 36.1318 101.196 37.3527C98.7873 40.5152 97.2974 44.0079 96.6646 48.031C96.4197 49.5721 96.4197 53.1049 96.6646 54.6861C97.7056 61.3412 101.43 67.0656 107.145 70.8185C110.044 72.71 113.819 74.061 117.493 74.5013C120.055 74.8116 124.933 74.4713 125.525 73.9409C125.78 73.7107 125.78 73.0902 125.535 72.8701C125.29 72.6599 125.147 72.6599 123.474 72.9001C121.922 73.1303 119.004 73.1803 117.606 73.0002C112.585 72.3697 108.339 70.3882 104.757 67.0056C96.4605 59.1395 95.6645 46.4597 102.931 37.6229C107.125 32.509 113.452 29.5667 120.208 29.5667C127.035 29.5667 133.362 32.549 137.628 37.7931C141.526 42.5868 143.231 49.2119 142.098 55.1865C141.853 56.4875 141.924 56.3874 141.302 56.2173C141.006 56.1372 140.21 56.0471 139.516 56.0171C138.393 55.9671 138.271 55.947 138.322 55.7869C138.465 55.3366 138.689 54.1357 138.791 53.1849C139.057 50.8031 138.577 46.6199 137.995 46.1995C137.7 45.9894 137.148 46.0895 136.914 46.3897C136.72 46.6599 136.72 46.6599 136.934 47.6406C137.118 48.5013 137.353 50.0725 137.353 50.4528C137.353 50.5429 137.138 50.5829 136.587 50.5829C135.699 50.5829 135.363 50.713 135.23 51.0833C135.118 51.4035 135.301 51.9239 135.567 52.024C135.659 52.054 136.108 52.0841 136.557 52.0841H137.373L137.302 52.7546C137.21 53.6853 136.853 55.5567 136.699 55.937C136.587 56.1872 136.455 56.2773 135.965 56.4274C132.332 57.5383 129.678 60.9009 129.331 64.8239C129.26 65.6145 129.26 65.6145 128.841 65.8747C127.607 66.6353 125.239 67.516 123.576 67.8362C122.616 68.0163 121.045 68.1865 120.973 68.1064C120.943 68.0864 120.922 67.6861 120.922 67.2357C120.922 66.4651 120.902 66.3951 120.657 66.2049C120.341 65.9648 120.218 65.9447 119.861 66.1049C119.534 66.255 119.392 66.6653 119.392 67.4859V68.1564L118.555 68.0764C115.228 67.7661 111.921 66.4351 109.39 64.3936C109.023 64.1033 108.707 63.8431 108.686 63.8231C108.656 63.8031 108.87 63.5529 109.166 63.2627C109.799 62.6222 109.931 62.342 109.748 61.9317C109.676 61.7615 109.544 61.5914 109.441 61.5514C109.023 61.4012 108.768 61.5013 108.145 62.0818L107.513 62.6622L107.064 62.1518C105.921 60.8408 104.645 58.6591 104.043 57.0079C103.492 55.4967 103.073 53.345 103.063 52.054V51.4836H103.808C104.696 51.4836 105.002 51.2935 105.002 50.733C105.002 50.2026 104.635 49.9825 103.767 49.9825H103.073L103.114 49.7022C103.135 49.5521 103.206 49.0918 103.267 48.6814C103.41 47.7708 103.788 46.3396 104.135 45.439C104.747 43.8277 106.064 41.636 107.074 40.5252L107.533 40.0248L108.145 40.5952C108.625 41.0456 108.839 41.1757 109.074 41.1757C109.421 41.1757 109.788 40.8854 109.809 40.5952C109.839 40.2349 109.768 40.1048 109.207 39.5444L108.625 38.954L109.135 38.5036C109.901 37.8331 111.636 36.7222 112.738 36.2018C114.575 35.3412 116.759 34.7407 118.585 34.6006L119.392 34.5406V35.1911C119.392 36.2619 119.626 36.6722 120.249 36.6722C120.759 36.6722 120.922 36.372 120.922 35.4112V34.5406L121.78 34.6006C125.045 34.8508 128.535 36.2619 131.107 38.3635L131.76 38.8939L131.25 39.4143C130.974 39.6945 130.689 40.0248 130.627 40.1449C130.382 40.6252 130.77 41.1757 131.362 41.1757C131.576 41.1757 131.811 41.0256 132.27 40.5952L132.883 40.0248L133.26 40.4351C133.464 40.6653 133.913 41.2457 134.26 41.7361C134.618 42.2265 134.975 42.7269 135.056 42.847C135.261 43.1372 135.914 43.1672 136.159 42.897C136.495 42.5367 136.373 42.1064 135.679 41.0856C134.393 39.2042 132.515 37.3727 130.536 36.0717C128.688 34.8608 126.035 33.79 123.821 33.3697C113.197 31.3481 103.094 38.4836 101.675 49.0217C101.441 50.743 101.533 53.305 101.879 54.9363C103.931 64.5337 112.972 70.8085 122.861 69.4875C124.657 69.2373 126.954 68.5267 128.617 67.6961C129.158 67.4259 129.454 67.3258 129.495 67.3959C129.535 67.4659 129.617 67.7461 129.688 68.0364C129.75 68.3266 130.025 68.9971 130.301 69.5375L130.78 70.5183L129.699 71.0487C129.097 71.3489 128.576 71.6591 128.535 71.7492C128.321 72.2996 128.637 72.83 129.168 72.83C129.321 72.83 129.964 72.5899 130.587 72.2996L131.73 71.7692L132.423 72.3997C134.383 74.1511 136.71 74.9817 139.394 74.8716C140.986 74.8116 141.955 74.5714 143.363 73.8909C144.537 73.3104 144.772 73.0402 144.578 72.4798C144.374 71.8993 143.925 71.8593 143.088 72.3497C142.751 72.5398 142.047 72.8401 141.526 73.0202C140.608 73.3304 140.496 73.3504 139.036 73.3504C137.72 73.3504 137.404 73.3204 136.74 73.1203C133.924 72.2496 131.913 70.228 131.117 67.4459C130.77 66.255 130.791 64.4836 131.168 63.2427C132.046 60.3604 134.322 58.2788 137.291 57.6383C138.547 57.3681 140.383 57.4582 141.557 57.8585C144.18 58.7492 146.098 60.7507 146.864 63.3628C147.047 63.9932 147.088 64.3936 147.088 65.4444C147.088 66.9355 146.956 67.526 146.323 68.907C145.945 69.7177 145.925 69.8177 146.047 70.0679C146.119 70.218 146.313 70.4082 146.466 70.4782C147.058 70.7585 147.486 70.2881 148.068 68.7169C149.548 64.7138 148.201 60.3504 144.69 57.7885C144.272 57.4782 143.772 57.168 143.588 57.0979C143.374 57.0079 143.282 56.9078 143.312 56.7977C143.496 56.2072 143.792 54.2958 143.894 53.1249C144.241 49.0317 143.363 44.6584 141.445 40.9255C140.271 38.6437 139.067 36.9724 137.302 35.1811C134.332 32.1487 130.505 29.907 126.535 28.8762C124.331 28.2957 123.137 28.1456 120.616 28.1156C119.351 28.0956 118.157 28.1056 117.963 28.1256Z" fill="#F6705F"/>
<path d="M119.728 38.8138L119.442 39.054L119.412 43.6476L119.381 48.2311L118.932 48.4112C118.279 48.6814 117.605 49.3019 117.279 49.9624C117.034 50.4428 116.993 50.653 116.993 51.3335C117.003 52.3843 117.269 53.0048 118.024 53.6753C119.116 54.656 120.708 54.7961 121.953 54.0256C122.453 53.7153 123.024 53.0448 123.229 52.5144L123.402 52.0841H126.913H130.423L130.668 51.8339C130.811 51.7038 130.923 51.4736 130.923 51.3335C130.923 51.1934 130.811 50.9632 130.668 50.8331L130.423 50.5829H126.913H123.402L123.229 50.1426C122.973 49.482 122.33 48.8315 121.575 48.4713L120.922 48.151V43.5675V38.984L120.657 38.7838C120.3 38.5136 120.075 38.5236 119.728 38.8138ZM121.024 49.8724C122.208 50.4828 122.198 52.2442 120.994 52.8446C120.596 53.0548 119.82 53.0548 119.412 52.8446C118.371 52.3142 118.177 50.8331 119.055 50.0625C119.514 49.6522 120.443 49.5621 121.024 49.8724Z" fill="#F6705F"/>
<path d="M119.728 38.8138L119.442 39.054L119.412 43.6476L119.381 48.2311L118.932 48.4112C118.279 48.6814 117.605 49.3019 117.279 49.9624C117.034 50.4428 116.993 50.653 116.993 51.3335C117.003 52.3843 117.269 53.0048 118.024 53.6753C119.116 54.656 120.708 54.7961 121.953 54.0256C122.453 53.7153 123.024 53.0448 123.229 52.5144L123.402 52.0841H126.913H130.423L130.668 51.8339C130.811 51.7038 130.923 51.4736 130.923 51.3335C130.923 51.1934 130.811 50.9632 130.668 50.8331L130.423 50.5829H126.913H123.402L123.229 50.1426C122.973 49.482 122.33 48.8315 121.575 48.4713L120.922 48.151V43.5675V38.984L120.657 38.7838C120.3 38.5136 120.075 38.5236 119.728 38.8138ZM121.024 49.8724C122.208 50.4828 122.198 52.2442 120.994 52.8446C120.596 53.0548 119.82 53.0548 119.412 52.8446C118.371 52.3142 118.177 50.8331 119.055 50.0625C119.514 49.6522 120.443 49.5621 121.024 49.8724Z" stroke="white"/>
<path d="M108.146 49.2419C107.646 49.5021 107.554 49.8323 107.554 51.3635C107.554 52.6445 107.574 52.7846 107.788 53.0948C108.166 53.6453 108.493 53.7053 111.279 53.6653C114.014 53.6353 114.105 53.6052 114.442 52.9247C114.575 52.6345 114.605 52.3142 114.575 51.1734L114.544 49.7623L114.167 49.422L113.779 49.0818H111.105C108.931 49.0918 108.37 49.1218 108.146 49.2419ZM113.064 51.3835V52.1841H111.074H109.084V51.3835V50.5829H111.074H113.064V51.3835Z" fill="#F6705F"/>
<path d="M108.146 49.2419C107.646 49.5021 107.554 49.8323 107.554 51.3635C107.554 52.6445 107.574 52.7846 107.788 53.0948C108.166 53.6453 108.493 53.7053 111.279 53.6653C114.014 53.6353 114.105 53.6052 114.442 52.9247C114.575 52.6345 114.605 52.3142 114.575 51.1734L114.544 49.7623L114.167 49.422L113.779 49.0818H111.105C108.931 49.0918 108.37 49.1218 108.146 49.2419ZM113.064 51.3835V52.1841H111.074H109.084V51.3835V50.5829H111.074H113.064V51.3835Z" stroke="white"/>
<path d="M141.843 61.3512C141.639 61.4313 140.71 62.2619 139.68 63.2727L137.863 65.0441L137.077 64.2735C135.955 63.1826 135.22 62.9124 134.159 63.2027C133.669 63.3328 133.016 63.9032 132.74 64.4236C132.465 64.964 132.465 65.8447 132.75 66.4251C132.883 66.6954 133.587 67.4659 134.669 68.5168C136.598 70.3782 136.914 70.5583 138.057 70.4783C139.098 70.4082 139.394 70.188 142.057 67.516C143.415 66.1549 144.639 64.874 144.772 64.6738C145.078 64.2235 145.19 63.2927 145.007 62.7423C144.843 62.2419 144.241 61.6014 143.731 61.3813C143.231 61.1511 142.333 61.1411 141.843 61.3512ZM143.323 62.9425C143.486 63.0926 143.578 63.2927 143.578 63.5029C143.578 63.7731 143.404 63.9933 142.435 64.984C139.516 67.9363 138.71 68.7169 138.455 68.857C138.108 69.0372 137.628 69.0372 137.271 68.857C136.853 68.6368 134.087 65.8547 134.077 65.6345C134.036 65.0141 134.383 64.5937 134.914 64.5937C135.169 64.5937 135.404 64.7839 136.363 65.7446C137.353 66.7454 137.547 66.8955 137.832 66.8955C138.128 66.8955 138.394 66.6653 140.271 64.7939C142.2 62.8824 142.415 62.6923 142.731 62.6923C142.966 62.6923 143.16 62.7723 143.323 62.9425Z" fill="#F6705F"/>
<path d="M141.843 61.3512C141.639 61.4313 140.71 62.2619 139.68 63.2727L137.863 65.0441L137.077 64.2735C135.955 63.1826 135.22 62.9124 134.159 63.2027C133.669 63.3328 133.016 63.9032 132.74 64.4236C132.465 64.964 132.465 65.8447 132.75 66.4251C132.883 66.6954 133.587 67.4659 134.669 68.5168C136.598 70.3782 136.914 70.5583 138.057 70.4783C139.098 70.4082 139.394 70.188 142.057 67.516C143.415 66.1549 144.639 64.874 144.772 64.6738C145.078 64.2235 145.19 63.2927 145.007 62.7423C144.843 62.2419 144.241 61.6014 143.731 61.3813C143.231 61.1511 142.333 61.1411 141.843 61.3512ZM143.323 62.9425C143.486 63.0926 143.578 63.2927 143.578 63.5029C143.578 63.7731 143.404 63.9933 142.435 64.984C139.516 67.9363 138.71 68.7169 138.455 68.857C138.108 69.0372 137.628 69.0372 137.271 68.857C136.853 68.6368 134.087 65.8547 134.077 65.6345C134.036 65.0141 134.383 64.5937 134.914 64.5937C135.169 64.5937 135.404 64.7839 136.363 65.7446C137.353 66.7454 137.547 66.8955 137.832 66.8955C138.128 66.8955 138.394 66.6653 140.271 64.7939C142.2 62.8824 142.415 62.6923 142.731 62.6923C142.966 62.6923 143.16 62.7723 143.323 62.9425Z" stroke="white"/>
</g>
<defs>
<clipPath id="clip0_107_624">
<rect width="52.2503" height="51.2395" fill="white" transform="translate(96.4302 25.8639)"/>
</clipPath>
</defs>
</svg>
