<svg width="110" height="86" viewBox="0 0 110 86" fill="none" xmlns="http://www.w3.org/2000/svg">
<path d="M56.4956 49.4757C56.4956 49.8017 56.6249 50.1144 56.8552 50.345C57.0854 50.5756 57.3977 50.7051 57.7233 50.7051C58.0489 50.7051 58.3611 50.5756 58.5914 50.345C58.8216 50.1144 58.951 49.8017 58.951 49.4757C58.951 49.1496 58.8216 48.8369 58.5914 48.6063C58.3611 48.3757 58.0489 48.2462 57.7233 48.2462C57.3977 48.2462 57.0854 48.3757 56.8552 48.6063C56.6249 48.8369 56.4956 49.1496 56.4956 49.4757Z" fill="#F6705F"/>
<path d="M67.2235 55.921H42.0193L5.37305 28.0371V30.5083L41.344 57.8881H67.8619L104.569 30.4345V27.9756L67.2235 55.921Z" fill="#F6705F"/>
<path d="M78.0714 11.6183V12.1183H78.5714L109.5 12.1183V85.5H0.5L0.5 12.1183L31.4286 12.1183H31.9286V11.6183V0.5L78.0714 0.5V11.6183ZM36.8304 4.90958H36.3304V5.40958V11.606V12.106H36.8304L73.1696 12.106H73.6696V11.606V5.40958V4.90958H73.1696L36.8304 4.90958ZM104.598 81.0904H105.098V80.5904V74.5907V74.0907H104.598H5.40179H4.90179V74.5907V80.5904V81.0904H5.40179H104.598ZM104.598 73.1113H105.098V72.6113V17.0279V16.5279H104.598L5.40179 16.5279H4.90179V17.0279L4.90179 72.6113V73.1113H5.40179H104.598Z" fill="#F6705F" stroke="white"/>
</svg>
