<svg width="110" height="110" viewBox="0 0 110 110" fill="none" xmlns="http://www.w3.org/2000/svg">
<path d="M8.68858 0.158844C5.329 0.911423 2.35171 3.29652 0.915198 6.39946C0.162187 8.04355 0 8.83086 0 11.0307C0 13.2306 0.162187 14.0179 0.926782 15.6735C2.49073 19.0659 5.88507 21.5784 9.48793 22.0299L10.1367 22.111V37.5562V53.0015H7.58803C5.18998 53.0015 5.02779 53.013 4.80768 53.233C4.58757 53.453 4.57599 53.6151 4.57599 55.676C4.57599 58.1306 4.68025 58.7905 5.29424 59.9946C5.76922 60.9325 7.0783 62.2408 8.01667 62.7155C9.5111 63.4681 8.45689 63.4334 27.8846 63.3986L45.5282 63.3639L46.3275 63.0397C48.2738 62.264 49.6871 60.7241 50.3011 58.7326C50.4981 58.0727 50.5096 56.9843 50.5096 35.2869V12.5359L50.2432 11.9917C50.0926 11.7022 49.745 11.2507 49.467 10.9844C48.5286 10.116 49.3048 10.1623 34.9165 10.1623H22.0922L22.0111 9.51398C21.4782 5.2648 18.246 1.57137 13.9481 0.309357C12.7896 -0.0264091 9.8934 -0.107456 8.68858 0.158844ZM13.253 1.89556C13.67 1.98819 14.5621 2.33553 15.234 2.65972C16.3345 3.19231 16.5662 3.36599 17.6089 4.4196C18.582 5.39216 18.8716 5.77424 19.3234 6.65417C20.7252 9.38662 20.7831 12.3969 19.4856 15.0831C18.2808 17.5608 16.1144 19.367 13.4152 20.1427C12.6737 20.3511 12.2335 20.3974 11.0055 20.3974C9.16356 20.3858 8.15568 20.1427 6.61491 19.3438C5.75764 18.8923 5.34058 18.5681 4.39063 17.6302C3.32483 16.5766 3.16264 16.3567 2.62975 15.2567C2.30537 14.5852 1.95783 13.6705 1.84198 13.2306C1.56395 12.1191 1.56395 9.93079 1.84198 8.83086C2.80352 5.11428 5.87348 2.3008 9.61537 1.71031C10.5306 1.57137 12.2799 1.664 13.253 1.89556ZM48.1348 12.0727C48.8762 12.4548 48.8298 10.7181 48.8298 35.2522C48.8298 53.7888 48.7951 57.679 48.6677 58.1653C48.2969 59.5431 47.3817 60.6662 46.0727 61.303C45.4703 61.604 45.3081 61.6272 44.0801 61.6272C42.8405 61.6272 42.7015 61.604 42.0643 61.2798C41.1955 60.8514 40.2571 59.9252 39.8748 59.1147C39.4578 58.2348 39.3072 57.2622 39.3303 55.4444C39.3535 53.3835 39.3651 53.4993 39.0986 53.233C38.8669 53.0015 38.7163 53.0015 25.3707 53.0015H11.8744V37.5678V22.1341L12.7896 21.9952C17.4351 21.2658 21.2465 17.4566 21.9763 12.8137L22.1153 11.8991H34.9629C46.2117 11.8991 47.8451 11.9222 48.1348 12.0727ZM37.7085 56.3128C37.7085 58.5937 38.1139 59.8904 39.2029 61.1293C39.4693 61.4188 39.6779 61.6966 39.6779 61.7314C39.6779 61.8471 11.6775 61.8008 10.6001 61.6966C9.34892 61.5577 8.4453 61.1525 7.63437 60.342C6.58015 59.2884 6.19786 58.1074 6.19786 55.9307V54.7382H21.9532H37.7085V56.3128Z" fill="#0071F1"/>
<path d="M12.2569 10.1856L9.09421 13.3348L7.90098 12.1538C6.8931 11.1697 6.63824 10.9729 6.33703 10.9729C5.87364 10.9729 5.50293 11.3665 5.50293 11.8296C5.50293 12.1307 5.74621 12.4201 7.11321 13.7748C8.42229 15.0831 8.76984 15.3726 9.04787 15.3726C9.32591 15.3726 9.92832 14.8168 12.9404 11.8181C15.9292 8.83091 16.5085 8.20569 16.5085 7.92782C16.5085 7.53416 16.0451 7.0363 15.6744 7.0363C15.489 7.0363 14.5275 7.92782 12.2569 10.1856Z" fill="#0071F1"/>
<path d="M23.3546 16.9464C23.2156 17.1202 23.1113 17.3403 23.1113 17.4562C23.1113 17.572 23.2156 17.7921 23.3546 17.9659L23.5863 18.2671H34.0474C44.0334 18.2671 44.52 18.2555 44.6938 18.0586C44.8096 17.9427 44.8907 17.6531 44.8907 17.4214C44.8907 16.5989 45.5742 16.6452 33.9894 16.6452H23.5863L23.3546 16.9464Z" fill="#0071F1"/>
<path d="M15.9408 24.5879C15.628 24.9934 15.6395 25.2714 15.9871 25.6189L16.2651 25.9086H30.3522C44.2771 25.9086 44.4277 25.9086 44.6594 25.6769C44.9606 25.3757 44.9606 24.7385 44.6826 24.4836C44.4856 24.2983 43.3272 24.2867 30.3175 24.2867H16.1724L15.9408 24.5879Z" fill="#0071F1"/>
<path d="M16.207 31.9515C15.9521 32.0674 15.6973 32.496 15.6973 32.8088C15.6973 32.9015 15.8247 33.11 15.9869 33.2606L16.2649 33.5502H30.352C44.2769 33.5502 44.4275 33.5502 44.6592 33.3185C44.972 33.0057 44.9604 32.3802 44.6476 32.0905C44.4159 31.882 43.9873 31.8704 30.4215 31.8473C20.9336 31.8357 16.3692 31.8704 16.207 31.9515Z" fill="#0071F1"/>
<path d="M15.9873 39.7436C15.6397 40.0795 15.6166 40.485 15.9178 40.8557L16.1379 41.1337L30.2134 41.1685L44.2773 41.1917L44.5901 40.9484C45.0072 40.624 45.0072 40.0216 44.5901 39.6972C44.2773 39.4539 44.2657 39.4539 30.2713 39.4539H16.2653L15.9873 39.7436Z" fill="#0071F1"/>
<path d="M15.9869 47.3854C15.8247 47.536 15.6973 47.7445 15.6973 47.8372C15.6973 48.1731 15.9637 48.5902 16.2649 48.706C16.4734 48.7987 20.7019 48.8335 30.4794 48.8103C43.9873 48.7756 44.4159 48.764 44.6476 48.5554C44.9604 48.2658 44.972 47.6402 44.6592 47.3275C44.4275 47.0958 44.2769 47.0958 30.352 47.0958H16.2649L15.9869 47.3854Z" fill="#0071F1"/>
<path d="M57.8778 20.768C57.4608 21.3006 57.6114 21.8564 58.2254 22.0764C58.4339 22.1458 59.1174 22.2037 59.7662 22.2037C62.0947 22.2037 66.0335 22.8289 68.6517 23.6047C77.3634 26.1866 84.6155 31.7673 89.3537 39.513C90.014 40.6014 91.8097 44.179 91.9834 44.7463C92.0182 44.8969 92.0066 45.0126 91.9487 45.0126C91.8907 45.0126 90.7091 44.5379 89.3305 43.9706C87.9403 43.3917 86.6892 42.9286 86.5502 42.9286C86.4111 42.9286 86.1794 43.0096 86.0404 43.1138C85.7161 43.3338 85.6813 44.0748 85.9941 44.3411C86.0984 44.4337 87.8477 45.1979 89.8634 46.0315C93.6632 47.6061 93.837 47.6525 94.2077 47.2009C94.451 46.8883 97.2892 39.9067 97.2892 39.6057C97.2892 39.1657 96.7448 38.7141 96.3393 38.8183C96.1771 38.8647 95.9802 38.9457 95.9107 39.0036C95.8412 39.0615 95.3198 40.2193 94.7638 41.5739C94.2077 42.917 93.7211 44.0748 93.6748 44.1211C93.6285 44.1674 93.4431 43.8548 93.2577 43.4264C90.4774 36.769 85.3801 30.6789 79.2054 26.6266C73.3783 22.8058 65.7902 20.4786 59.1174 20.467C58.1675 20.467 58.0979 20.4786 57.8778 20.768Z" fill="#0071F1"/>
<path d="M72.6018 56.8338C71.397 57.0654 70.3428 57.9685 69.9141 59.1032C69.6825 59.7168 69.6825 59.9831 69.6825 79.6312V99.5456H67.157C64.7705 99.5456 64.6199 99.5572 64.3766 99.7772C64.0754 100.067 64.0986 99.8235 64.1218 102.44C64.1449 104.86 64.2144 105.265 64.7937 106.492C65.5583 108.056 67.1222 109.329 68.8715 109.792C69.8446 110.047 104.298 110.047 105.248 109.792C107.449 109.202 109.233 107.407 109.824 105.219C109.974 104.663 109.997 101.549 109.997 82.1089C109.997 56.5444 110.102 58.9874 108.966 57.8527C107.762 56.6602 109.615 56.7644 90.1296 56.7412C80.7691 56.7412 72.8799 56.776 72.6018 56.8338ZM107.263 58.6748C107.53 58.8021 107.866 59.0916 108.028 59.3347L108.318 59.7631L108.352 81.8195C108.364 97.2763 108.341 104.073 108.248 104.489C107.75 106.944 105.398 108.623 103 108.252C100.996 107.94 99.5596 106.643 99.0499 104.698C98.9224 104.212 98.8761 103.436 98.8761 102.023V100.02L98.5749 99.7887C98.2621 99.5456 98.2505 99.5456 84.7774 99.5456H71.3043L71.3275 79.7122C71.3622 61.523 71.3738 59.8673 71.5592 59.5431C71.7909 59.1147 72.1964 58.7211 72.5786 58.5706C72.764 58.5011 78.846 58.4548 89.8284 58.4548C106.522 58.4432 106.8 58.4432 107.263 58.6748ZM97.2542 102.926C97.2542 105.23 97.6018 106.354 98.7139 107.72L99.2236 108.345H84.65C68.9642 108.345 69.4623 108.368 68.2691 107.754C67.5972 107.419 66.7631 106.597 66.404 105.937C65.9174 105.045 65.7436 104.165 65.7436 102.649V101.282H81.4989H97.2542V102.926Z" fill="#0071F1"/>
<path d="M75.5327 63.4789C74.9998 64.0002 75.2779 64.7185 76.0772 64.8691C76.2857 64.9039 82.6574 64.9154 90.2222 64.9039L103.997 64.8691L104.217 64.5911C104.518 64.2204 104.495 63.7454 104.17 63.4442L103.904 63.1893H89.8515H75.8108L75.5327 63.4789Z" fill="#0071F1"/>
<path d="M75.4982 71.0972C75.1738 71.4332 75.1738 71.8734 75.475 72.1978L75.7183 72.4526H89.8402C103.823 72.4526 103.974 72.4526 104.205 72.2209C104.333 72.0935 104.437 71.8386 104.437 71.6417C104.437 71.4448 104.333 71.1899 104.205 71.0625C103.974 70.8308 103.823 70.8308 89.8633 70.8308H75.7415L75.4982 71.0972Z" fill="#0071F1"/>
<path d="M75.4752 78.7041C75.1624 79.0169 75.174 79.5266 75.51 79.8394L75.7764 80.0942H89.8751C103.823 80.0942 103.974 80.0942 104.205 79.8625C104.333 79.7351 104.437 79.4802 104.437 79.2833C104.437 79.0864 104.333 78.8315 104.205 78.7041C103.974 78.4724 103.823 78.4724 89.8404 78.4724C75.8575 78.4724 75.7069 78.4724 75.4752 78.7041Z" fill="#0071F1"/>
<path d="M75.7416 86.1141C75.1971 86.3342 75.0928 87.0177 75.5331 87.4463L75.8111 87.736H89.875H103.939L104.182 87.4695C104.507 87.122 104.518 86.5659 104.194 86.2763C103.962 86.0678 103.533 86.0562 89.9677 86.033C82.0553 86.0214 75.8922 86.0562 75.7416 86.1141Z" fill="#0071F1"/>
<path d="M75.5328 93.9293C75.3706 94.0799 75.2432 94.3464 75.2432 94.5086C75.2432 94.6708 75.3706 94.9372 75.5328 95.0878L75.8108 95.3774H89.8168C103.811 95.3774 103.823 95.3774 104.136 95.1342C104.356 94.9604 104.437 94.7866 104.437 94.5086C104.437 94.2305 104.356 94.0568 104.136 93.883C103.823 93.6397 103.811 93.6397 89.8168 93.6397H75.8108L75.5328 93.9293Z" fill="#0071F1"/>
<path d="M22.7873 69.2456C22.6483 69.3962 22.5324 69.5467 22.5324 69.593C22.5324 69.6393 21.8837 71.2487 21.0843 73.1706C20.285 75.081 19.6362 76.7483 19.6362 76.8756C19.6362 77.1882 20.146 77.6629 20.4819 77.6629C20.6441 77.6629 20.8758 77.5703 21.0032 77.4545C21.1307 77.3503 21.6983 76.1462 22.2544 74.7916C22.8105 73.4485 23.297 72.337 23.3318 72.337C23.3781 72.337 23.5635 72.6843 23.7372 73.1127C27.4791 81.8427 34.4879 88.9169 43.1765 92.7608C46.9416 94.4165 51.0542 95.4701 55.2478 95.8522C56.916 96.0027 62.0249 95.9217 62.778 95.7364C63.0212 95.6785 63.3108 95.5512 63.4035 95.447C63.6584 95.1922 63.6236 94.6018 63.3456 94.3123C63.1139 94.0807 63.0676 94.0807 60.6927 94.2197C51.7145 94.7407 43.2692 92.1009 36.0866 86.5318C34.569 85.3624 31.557 82.3752 30.3406 80.8469C28.9736 79.1218 27.4444 76.7598 26.506 74.9421C25.5329 73.0433 24.8146 71.4107 24.9536 71.4107C25 71.4107 26.1816 71.8739 27.5718 72.4528C28.962 73.0201 30.2479 73.4948 30.4217 73.4948C31.1399 73.4948 31.4875 72.6149 30.9661 72.1402C30.6302 71.8391 23.7257 68.9793 23.3202 68.9793C23.1696 68.9793 22.9263 69.0951 22.7873 69.2456Z" fill="#0071F1"/>
</svg>
