<svg width="107" height="110" viewBox="0 0 107 110" fill="none" xmlns="http://www.w3.org/2000/svg">
<path d="M57.6995 19.0042L57.6995 19.0043L57.6906 18.9982C57.0376 18.5461 56.1803 18.1139 55.3434 17.7952C54.5154 17.48 53.7631 17.2973 53.2762 17.2887C53.2513 17.2981 53.2104 17.3167 53.1511 17.3495C53.0289 17.417 52.8625 17.5254 52.6496 17.6802C52.2254 17.9885 51.655 18.4523 50.948 19.0644C49.5362 20.2868 47.6094 22.0746 45.2734 24.3282C40.6031 28.8338 34.3148 35.1839 27.2739 42.5554C17.3417 52.9894 11.232 59.6039 7.46172 64.1019C3.68562 68.6069 2.3036 70.936 1.75705 72.8052C-0.974388 82.8555 0.736738 91.7942 6.97047 99.2091L6.97055 99.2091L6.97689 99.2169C14.0142 107.939 23.9778 111.231 34.6448 108.639C36.0733 108.283 37.2033 107.942 38.4685 107.27C39.7399 106.594 41.1688 105.573 43.1688 103.831C47.1767 100.34 53.3943 94.0336 65.1221 82.0349C73.2616 73.5825 79.3756 67.0535 83.4532 62.4451C85.493 60.1397 87.0169 58.3221 88.0285 56.9881C88.5351 56.3201 88.9058 55.7831 89.1475 55.3727C89.2685 55.1672 89.3516 55.0027 89.4032 54.8759C89.4288 54.8129 89.4445 54.7644 89.4535 54.7288C89.4617 54.696 89.4624 54.6814 89.4624 54.6814L89.4624 54.682C89.4624 54.0423 89.2796 53.2037 88.9722 52.3477C88.6675 51.4993 88.2551 50.6741 87.8251 50.0586C87.4172 49.5132 87.0633 48.9561 87.0169 48.2663C86.9701 47.5717 87.2393 46.8459 87.8095 45.9578C88.94 44.1969 91.4679 41.4854 96.1845 36.5875L106.013 26.3817L93.644 13.5377L93.6411 13.5347C90.1801 9.88065 86.9505 6.5869 84.5443 4.20789C83.3408 3.01793 82.3457 2.05931 81.6317 1.39966C81.2739 1.06908 80.9915 0.818039 80.7909 0.651573C80.7651 0.630142 80.7411 0.610535 80.7189 0.592667C80.7168 0.594337 80.7147 0.596024 80.7125 0.597733C80.5552 0.723228 80.3345 0.914719 80.0538 1.16997C79.4944 1.67879 78.7202 2.41927 77.7836 3.33958C75.9114 5.17903 73.4032 7.72375 70.6914 10.5397C68.3544 12.9667 66.5665 14.8158 65.1622 16.1951C63.7626 17.5698 62.7213 18.5006 61.8803 19.0749C61.0361 19.6515 60.3298 19.9136 59.6162 19.8476C58.9287 19.7839 58.3263 19.4184 57.6995 19.0042ZM101.293 26.0349L101.627 26.3817L101.293 26.7285L93.2095 35.1227C91.0104 37.4063 88.8662 39.5128 87.1817 41.051C86.3404 41.8191 85.6074 42.4515 85.0363 42.8944C84.7517 43.115 84.4979 43.296 84.2855 43.4243C84.1795 43.4883 84.0745 43.5448 83.9745 43.5868C83.8842 43.6247 83.7541 43.67 83.6112 43.67C83.4549 43.67 83.3138 43.6131 83.2245 43.5717C83.121 43.5238 83.0103 43.4593 82.8972 43.3861C82.6701 43.2392 82.3936 43.0314 82.0802 42.7779C81.4513 42.2693 80.6378 41.5474 79.7091 40.6845C77.8498 38.957 75.5052 36.6424 73.2067 34.2855C70.9081 31.9286 68.6502 29.524 66.9649 27.6158C66.1231 26.6627 65.4188 25.8274 64.9227 25.1811C64.6754 24.859 64.4729 24.5749 64.3299 24.3415C64.2586 24.2253 64.1962 24.1121 64.1501 24.0068C64.1096 23.9143 64.0574 23.7752 64.0574 23.6236C64.0574 23.4799 64.107 23.3497 64.141 23.2703C64.1812 23.1767 64.2351 23.0761 64.296 22.9733C64.4182 22.7668 64.5908 22.514 64.8009 22.2267C65.2226 21.6501 65.8209 20.9007 66.5351 20.0433C67.9652 18.3268 69.8795 16.1549 71.8239 14.0231C73.7684 11.8913 75.7477 9.79447 77.3081 8.22861C78.0875 7.44656 78.7677 6.79158 79.2892 6.32977C79.5489 6.09984 79.7777 5.91016 79.9645 5.77527C80.0572 5.70833 80.1499 5.64732 80.2377 5.60094C80.3053 5.56519 80.445 5.49584 80.6088 5.49584C80.7142 5.49584 80.8005 5.52549 80.8465 5.54353C80.8998 5.56439 80.9494 5.59021 80.9922 5.61478C81.078 5.66401 81.1723 5.72925 81.27 5.80241C81.4673 5.95012 81.7186 6.16057 82.0135 6.42132C82.6055 6.94468 83.4026 7.69707 84.35 8.62077C86.2462 10.4696 88.7619 13.022 91.4774 15.8419L101.293 26.0349ZM70.3426 37.0647L70.345 37.0672C74.5634 41.4477 78.4073 45.5895 81.1981 48.7128C82.593 50.2738 83.7278 51.5839 84.5155 52.5436C84.9086 53.0225 85.2203 53.4202 85.4357 53.7211C85.5427 53.8706 85.6323 54.0049 85.6973 54.1183C85.7296 54.1747 85.7611 54.2349 85.7858 54.2953C85.8057 54.3437 85.8433 54.4432 85.8433 54.5621C85.8433 54.7018 85.7905 54.8198 85.7668 54.8709C85.7345 54.9402 85.6927 55.0126 85.648 55.0836C85.5577 55.2269 85.4307 55.4038 85.2745 55.6079C84.9605 56.0183 84.5031 56.5719 83.922 57.2487C82.7582 58.604 81.0794 60.475 79.014 62.7248C74.8821 67.2256 69.1919 73.2544 62.9545 79.7317L62.9524 79.7338C53.0833 89.8625 47.1804 95.8127 43.1804 99.3794C39.177 102.949 37.0282 104.18 34.6652 104.81C15.8989 110.078 0.128852 93.6262 5.17928 74.2254C5.78325 71.7815 6.96418 69.5543 10.4029 65.3957C13.8375 61.2422 19.5673 55.1125 29.321 44.8639L29.3231 44.8618C35.5606 38.3844 41.3661 32.4758 45.6854 28.1854C47.8445 26.0407 49.6348 24.298 50.9229 23.0902C51.5661 22.4871 52.0888 22.013 52.4714 21.6879C52.6617 21.5262 52.8249 21.3949 52.9549 21.3017C53.0191 21.2557 53.0849 21.2119 53.148 21.1774C53.1795 21.1601 53.2189 21.1405 53.2631 21.1241C53.301 21.11 53.3767 21.085 53.4716 21.085C53.5877 21.085 53.6858 21.1193 53.7423 21.1419C53.8072 21.168 53.8709 21.2013 53.9299 21.2357C54.0484 21.3046 54.1851 21.3992 54.3343 21.511C54.6345 21.7361 55.0242 22.0608 55.4885 22.4684C56.4192 23.2854 57.6779 24.4609 59.1737 25.9016C62.1668 28.7845 66.1258 32.7458 70.3426 37.0647Z" fill="#F6705F" stroke="white"/>
<path d="M75.643 16.9015C73.7954 18.9686 73.9108 19.3334 76.1049 22.0085L78.4145 24.9267L80.724 22.0085C82.9181 19.3334 83.0336 18.9686 81.1859 16.9015C80.0312 15.564 78.8764 14.5913 78.4145 14.5913C77.9526 14.5913 76.7978 15.564 75.643 16.9015Z" fill="#241D26"/>
<path d="M84.9966 26.3858C83.3799 28.3313 83.3799 28.8177 85.4585 31.4927L87.6526 34.2894L89.8467 31.4927C91.9253 28.8177 91.9253 28.3313 90.3086 26.3858C89.2693 25.2914 88.1145 24.3187 87.6526 24.3187C87.1907 24.3187 86.0359 25.2914 84.9966 26.3858Z" fill="#241D26"/>
<path d="M23.5915 76.0839L23.5911 76.0844C22.0444 77.8294 21.2929 79.7805 21.3063 81.6617C21.3197 83.5397 22.0954 85.3912 23.6824 86.9471L23.6829 86.9475C25.34 88.5761 27.1812 89.3564 28.9435 89.3424C30.7016 89.3285 32.4493 88.5239 33.9282 86.8513L33.9286 86.8509C35.4753 85.1059 36.2268 83.1548 36.2134 81.2736C36.2 79.3956 35.4243 77.5441 33.8373 75.9882L33.8368 75.9878C32.1797 74.3592 30.3385 73.5789 28.5762 73.5929C26.818 73.6068 25.0704 74.4113 23.5915 76.0839ZM32.1468 81.4676C32.1468 82.5971 31.9718 83.524 31.4521 84.2033C30.9213 84.8971 30.1082 85.2358 29.0647 85.3669C27.4891 85.6389 26.189 85.0071 25.4739 83.8237C24.7727 82.6635 24.672 81.0438 25.2842 79.3604C25.7419 77.9386 27.4445 77.3095 29.0614 77.568C30.1066 77.6988 30.9208 78.0374 31.4521 78.732C31.9718 79.4113 32.1468 80.3382 32.1468 81.4676Z" fill="#F6705F" stroke="white"/>
</svg>
