<svg width="40" height="40" viewBox="0 0 40 40" fill="none" xmlns="http://www.w3.org/2000/svg">
<rect width="40" height="40" rx="20" fill="#F6705F"/>
<path d="M23.7216 23.6661L24.1888 23.1765L23.104 22.0266L22.637 22.5162L23.7216 23.6661ZM25.7575 22.9714L27.7168 24.0942L28.4515 22.6696L26.4922 21.5468L25.7575 22.9714ZM28.094 26.3257L26.6371 27.8527L27.7217 29.0027L29.1787 27.4757L28.094 26.3257ZM25.7494 28.3444C24.2624 28.4905 20.4153 28.3603 16.25 23.9945L15.1654 25.1445C19.7107 29.9086 24.0369 30.1412 25.8921 29.959L25.7494 28.3444ZM16.25 23.9945C12.2797 19.8331 11.622 16.333 11.5401 14.8146L10.0043 14.9066C10.1073 16.8177 10.9217 20.6966 15.1654 25.1445L16.25 23.9945ZM17.6605 17.3133L17.9547 17.005C17.9547 17.005 17.2936 16.3041 16.87 15.8551C16.5759 16.1634 16.5759 16.1634 16.5759 16.1634L17.6605 17.3133ZM18.1888 13.0751L16.8956 11.2542L15.6641 12.226L16.9573 14.0469L18.1888 13.0751ZM12.5462 10.8578L10.9364 12.545L12.0211 13.6949L13.6308 12.0077L12.5462 10.8578ZM17.1182 16.7383C16.5759 16.1634 16.5744 16.1649 16.5744 16.1649L16.5729 16.1665L16.5698 16.1698C16.5678 16.172 16.5656 16.1743 16.5634 16.1768C16.559 16.1816 16.5543 16.1869 16.5493 16.1925C16.5394 16.2038 16.5286 16.2168 16.5169 16.2314C16.4937 16.2607 16.4673 16.2967 16.4396 16.3398C16.3841 16.4261 16.3236 16.5403 16.2723 16.6839C16.1676 16.9769 16.1114 17.3632 16.1818 17.8415C16.3195 18.7769 16.9306 20.0126 18.4962 21.6534L19.5808 20.5035C18.1158 18.9679 17.7668 18.0335 17.702 17.5929C17.6711 17.3833 17.7031 17.2801 17.7119 17.2557C17.7172 17.2405 17.7198 17.239 17.7132 17.2493C17.71 17.2544 17.7045 17.2623 17.696 17.2729C17.6918 17.2783 17.6868 17.2843 17.6809 17.291C17.678 17.2944 17.6749 17.2979 17.6714 17.3016C17.6698 17.3035 17.668 17.3054 17.6662 17.3073L17.6634 17.3103L17.662 17.3118C17.662 17.3118 17.6605 17.3133 17.1182 16.7383ZM18.4962 21.6534C20.0622 23.2948 21.2399 23.9336 22.1287 24.0774C22.5829 24.1508 22.9492 24.0922 23.227 23.9831C23.3632 23.9296 23.4717 23.8666 23.5537 23.8086C23.5948 23.7796 23.629 23.7521 23.6568 23.7277C23.6708 23.7156 23.6831 23.7043 23.6938 23.6939C23.6993 23.6887 23.7043 23.6839 23.7089 23.6792C23.7113 23.6768 23.7134 23.6746 23.7156 23.6724L23.7187 23.6691L23.7202 23.6676C23.7202 23.6676 23.7216 23.6661 23.1793 23.0911C22.637 22.5162 22.6384 22.5147 22.6384 22.5147L22.6399 22.5132L22.6426 22.5103C22.6446 22.5084 22.6463 22.5066 22.6481 22.5047C22.6517 22.5012 22.655 22.4979 22.6582 22.4948C22.6646 22.4887 22.6703 22.4834 22.6754 22.4791C22.6855 22.4703 22.693 22.4646 22.6976 22.4613C22.7071 22.4546 22.7052 22.4576 22.69 22.4635C22.6649 22.4734 22.5643 22.5072 22.362 22.4745C21.9382 22.406 21.0454 22.0385 19.5808 20.5035L18.4962 21.6534ZM16.8956 11.2542C15.8502 9.78219 13.7946 9.54928 12.5462 10.8578L13.6308 12.0077C14.1761 11.4362 15.1445 11.4944 15.6641 12.226L16.8956 11.2542ZM11.5401 14.8146C11.52 14.4404 11.6827 14.0495 12.0211 13.6949L10.9364 12.545C10.3854 13.1226 9.95215 13.9402 10.0043 14.9066L11.5401 14.8146ZM26.6371 27.8527C26.3553 28.1482 26.0532 28.3146 25.7494 28.3444L25.8921 29.959C26.6455 29.8849 27.2628 29.4837 27.7217 29.0027L26.6371 27.8527ZM17.9547 17.005C18.9643 15.9467 19.0394 14.2728 18.1888 13.0751L16.9573 14.0469C17.3711 14.6296 17.3096 15.3944 16.87 15.8551C17.2936 16.3041 17.9547 17.005 17.9547 17.005ZM27.7168 24.0942C28.5555 24.5749 28.6862 25.705 28.094 26.3257L29.1787 27.4757C30.5532 26.0349 30.1294 23.631 28.4515 22.6696L27.7168 24.0942ZM24.1888 23.1765C24.5826 22.7638 25.2165 22.6615 25.7575 22.9714L26.4922 21.5468C25.3809 20.91 24.0017 21.0858 23.104 22.0266L24.1888 23.1765Z" fill="white"/>
</svg>
