<svg width="32" height="32" viewBox="0 0 32 32" fill="none" xmlns="http://www.w3.org/2000/svg">
<path d="M3.98195 19.9809L1.69855 17.6975C0.767151 16.7661 0.767151 15.2338 1.69855 14.3024L3.98195 12.019C4.37254 11.6284 4.68801 10.8623 4.68801 10.3214V7.09158C4.68801 5.7696 5.76965 4.68801 7.09163 4.68801H10.3214C10.8623 4.68801 11.6284 4.37258 12.019 3.982L14.3023 1.69855C15.2337 0.767151 16.7662 0.767151 17.6976 1.69855L19.981 3.982C20.3716 4.37258 21.1376 4.68801 21.6784 4.68801H24.9084C26.2304 4.68801 27.3118 5.7696 27.3118 7.09158V10.3214C27.3118 10.8623 27.6273 11.6284 28.0179 12.019L30.3015 14.3024C31.2328 15.2338 31.2328 16.7661 30.3015 17.6975L28.0179 19.9809C27.6273 20.3715 27.3118 21.1378 27.3118 21.6786V24.9083C27.3118 26.2303 26.2304 27.3121 24.9084 27.3121H21.6784C21.1376 27.3121 20.3716 27.6274 19.981 28.018L17.6976 30.3014C16.7662 31.2328 15.2337 31.2328 14.3023 30.3014L12.019 28.018C11.6284 27.6274 10.8623 27.3121 10.3214 27.3121H7.09163C5.76965 27.3121 4.68801 26.2303 4.68801 24.9083V21.6786C4.68801 21.1228 4.37254 20.3565 3.98195 19.9809Z" stroke="#FF2727" stroke-linecap="round" stroke-linejoin="round"/>
<path opacity="0.7" d="M12.2046 20.4918L21.2181 11.4783" stroke="#FF0000" stroke-linecap="round" stroke-linejoin="round"/>
<path opacity="0.7" d="M20.459 19.7407H20.4747" stroke="#FF0000" stroke-width="2" stroke-linecap="round" stroke-linejoin="round"/>
<path opacity="0.7" d="M12.9473 12.2294H12.9629" stroke="#FF0000" stroke-width="2" stroke-linecap="round" stroke-linejoin="round"/>
</svg>
