<svg width="403" height="403" viewBox="0 0 403 403" fill="none" xmlns="http://www.w3.org/2000/svg">
<g filter="url(#filter0_d_105_514)">
<rect x="15" y="11" width="373" height="373" rx="186.5" fill="white"/>
<rect x="15.5" y="11.5" width="372" height="372" rx="186" stroke="#F6705F"/>
</g>
<path d="M153.8 181.32C151.826 181.32 149.906 181.013 148.04 180.4C146.2 179.787 144.693 178.96 143.52 177.92L145.36 174.76C146.293 175.64 147.506 176.36 149 176.92C150.493 177.48 152.093 177.76 153.8 177.76C155.88 177.76 157.493 177.32 158.64 176.44C159.813 175.533 160.4 174.32 160.4 172.8C160.4 171.333 159.84 170.16 158.72 169.28C157.626 168.373 155.88 167.92 153.48 167.92H151.24V165.12L159.56 154.88L160.12 156.48H144.8V153H163.28V155.72L155 165.92L152.92 164.68H154.24C157.626 164.68 160.16 165.44 161.84 166.96C163.546 168.48 164.4 170.413 164.4 172.76C164.4 174.333 164.013 175.773 163.24 177.08C162.466 178.387 161.293 179.427 159.72 180.2C158.173 180.947 156.2 181.32 153.8 181.32ZM191.112 181.32C189.139 181.32 187.219 181.013 185.352 180.4C183.512 179.787 182.006 178.96 180.832 177.92L182.672 174.76C183.606 175.64 184.819 176.36 186.312 176.92C187.806 177.48 189.392 177.76 191.072 177.76C193.206 177.76 194.846 177.307 195.992 176.4C197.139 175.493 197.712 174.28 197.712 172.76C197.712 171.72 197.459 170.813 196.952 170.04C196.446 169.267 195.566 168.68 194.312 168.28C193.086 167.853 191.392 167.64 189.232 167.64H182.872L184.352 153H200.152V156.48H185.832L187.912 154.52L186.752 166.08L184.672 164.16H190.072C192.872 164.16 195.126 164.52 196.832 165.24C198.539 165.96 199.779 166.96 200.552 168.24C201.326 169.493 201.712 170.947 201.712 172.6C201.712 174.2 201.326 175.667 200.552 177C199.779 178.307 198.606 179.36 197.032 180.16C195.486 180.933 193.512 181.32 191.112 181.32ZM218.081 181.32C215.894 181.32 213.934 180.76 212.201 179.64C210.494 178.52 209.134 176.893 208.121 174.76C207.134 172.627 206.641 170.04 206.641 167C206.641 163.96 207.134 161.373 208.121 159.24C209.134 157.107 210.494 155.48 212.201 154.36C213.934 153.24 215.894 152.68 218.081 152.68C220.241 152.68 222.188 153.24 223.921 154.36C225.654 155.48 227.014 157.107 228.001 159.24C228.988 161.373 229.481 163.96 229.481 167C229.481 170.04 228.988 172.627 228.001 174.76C227.014 176.893 225.654 178.52 223.921 179.64C222.188 180.76 220.241 181.32 218.081 181.32ZM218.081 177.76C219.548 177.76 220.828 177.36 221.921 176.56C223.041 175.76 223.908 174.56 224.521 172.96C225.161 171.36 225.481 169.373 225.481 167C225.481 164.627 225.161 162.64 224.521 161.04C223.908 159.44 223.041 158.24 221.921 157.44C220.828 156.64 219.548 156.24 218.081 156.24C216.614 156.24 215.321 156.64 214.201 157.44C213.081 158.24 212.201 159.44 211.561 161.04C210.948 162.64 210.641 164.627 210.641 167C210.641 169.373 210.948 171.36 211.561 172.96C212.201 174.56 213.081 175.76 214.201 176.56C215.321 177.36 216.614 177.76 218.081 177.76ZM246.361 181.32C244.174 181.32 242.214 180.76 240.481 179.64C238.774 178.52 237.414 176.893 236.401 174.76C235.414 172.627 234.921 170.04 234.921 167C234.921 163.96 235.414 161.373 236.401 159.24C237.414 157.107 238.774 155.48 240.481 154.36C242.214 153.24 244.174 152.68 246.361 152.68C248.521 152.68 250.467 153.24 252.201 154.36C253.934 155.48 255.294 157.107 256.281 159.24C257.267 161.373 257.761 163.96 257.761 167C257.761 170.04 257.267 172.627 256.281 174.76C255.294 176.893 253.934 178.52 252.201 179.64C250.467 180.76 248.521 181.32 246.361 181.32ZM246.361 177.76C247.827 177.76 249.107 177.36 250.201 176.56C251.321 175.76 252.187 174.56 252.801 172.96C253.441 171.36 253.761 169.373 253.761 167C253.761 164.627 253.441 162.64 252.801 161.04C252.187 159.44 251.321 158.24 250.201 157.44C249.107 156.64 247.827 156.24 246.361 156.24C244.894 156.24 243.601 156.64 242.481 157.44C241.361 158.24 240.481 159.44 239.841 161.04C239.227 162.64 238.921 164.627 238.921 167C238.921 169.373 239.227 171.36 239.841 172.96C240.481 174.56 241.361 175.76 242.481 176.56C243.601 177.36 244.894 177.76 246.361 177.76Z" fill="#F6705F"/>
<path d="M93.4582 212.1V204.08H88.8582L88.7582 206.12C88.7315 206.787 88.6849 207.433 88.6182 208.06C88.5649 208.673 88.4715 209.24 88.3382 209.76C88.2182 210.28 88.0382 210.707 87.7982 211.04C87.5582 211.373 87.2382 211.58 86.8382 211.66L84.9382 211.32C85.3515 211.333 85.6849 211.2 85.9382 210.92C86.1915 210.627 86.3849 210.227 86.5182 209.72C86.6649 209.213 86.7715 208.64 86.8382 208C86.9049 207.347 86.9582 206.673 86.9982 205.98L87.1582 202.4H95.3782V212.1H93.4582ZM84.5182 215.46V211.32H96.9982V215.46H95.1982V213H86.3382V215.46H84.5182ZM104.839 213.12C103.773 213.12 102.826 212.887 101.999 212.42C101.173 211.953 100.519 211.313 100.039 210.5C99.5594 209.673 99.3194 208.74 99.3194 207.7C99.3194 206.647 99.5594 205.713 100.039 204.9C100.519 204.087 101.173 203.453 101.999 203C102.826 202.533 103.773 202.3 104.839 202.3C105.893 202.3 106.833 202.533 107.659 203C108.499 203.453 109.153 204.087 109.619 204.9C110.099 205.7 110.339 206.633 110.339 207.7C110.339 208.753 110.099 209.687 109.619 210.5C109.153 211.313 108.499 211.953 107.659 212.42C106.833 212.887 105.893 213.12 104.839 213.12ZM104.839 211.44C105.519 211.44 106.126 211.287 106.659 210.98C107.206 210.673 107.633 210.24 107.939 209.68C108.246 209.107 108.399 208.447 108.399 207.7C108.399 206.94 108.246 206.287 107.939 205.74C107.633 205.18 107.206 204.747 106.659 204.44C106.126 204.133 105.519 203.98 104.839 203.98C104.159 203.98 103.553 204.133 103.019 204.44C102.486 204.747 102.059 205.18 101.739 205.74C101.419 206.287 101.259 206.94 101.259 207.7C101.259 208.447 101.419 209.107 101.739 209.68C102.059 210.24 102.486 210.673 103.019 210.98C103.553 211.287 104.159 211.44 104.839 211.44ZM113.912 213V202.4H118.832C120.072 202.4 121.045 202.64 121.752 203.12C122.472 203.587 122.832 204.253 122.832 205.12C122.832 205.987 122.492 206.66 121.812 207.14C121.145 207.607 120.259 207.84 119.152 207.84L119.452 207.32C120.719 207.32 121.659 207.553 122.272 208.02C122.885 208.487 123.192 209.173 123.192 210.08C123.192 211 122.845 211.72 122.152 212.24C121.472 212.747 120.425 213 119.012 213H113.912ZM115.792 211.52H118.872C119.672 211.52 120.272 211.4 120.672 211.16C121.072 210.907 121.272 210.507 121.272 209.96C121.272 209.4 121.085 208.993 120.712 208.74C120.352 208.473 119.779 208.34 118.992 208.34H115.792V211.52ZM115.792 206.96H118.672C119.405 206.96 119.959 206.827 120.332 206.56C120.719 206.28 120.912 205.893 120.912 205.4C120.912 204.893 120.719 204.513 120.332 204.26C119.959 204.007 119.405 203.88 118.672 203.88H115.792V206.96ZM131.537 213.12C130.47 213.12 129.524 212.887 128.697 212.42C127.87 211.953 127.217 211.313 126.737 210.5C126.257 209.673 126.017 208.74 126.017 207.7C126.017 206.647 126.257 205.713 126.737 204.9C127.217 204.087 127.87 203.453 128.697 203C129.524 202.533 130.47 202.3 131.537 202.3C132.59 202.3 133.53 202.533 134.357 203C135.197 203.453 135.85 204.087 136.317 204.9C136.797 205.7 137.037 206.633 137.037 207.7C137.037 208.753 136.797 209.687 136.317 210.5C135.85 211.313 135.197 211.953 134.357 212.42C133.53 212.887 132.59 213.12 131.537 213.12ZM131.537 211.44C132.217 211.44 132.824 211.287 133.357 210.98C133.904 210.673 134.33 210.24 134.637 209.68C134.944 209.107 135.097 208.447 135.097 207.7C135.097 206.94 134.944 206.287 134.637 205.74C134.33 205.18 133.904 204.747 133.357 204.44C132.824 204.133 132.217 203.98 131.537 203.98C130.857 203.98 130.25 204.133 129.717 204.44C129.184 204.747 128.757 205.18 128.437 205.74C128.117 206.287 127.957 206.94 127.957 207.7C127.957 208.447 128.117 209.107 128.437 209.68C128.757 210.24 129.184 210.673 129.717 210.98C130.25 211.287 130.857 211.44 131.537 211.44ZM138.771 212.98L138.891 211.36C138.985 211.373 139.071 211.387 139.151 211.4C139.231 211.413 139.305 211.42 139.371 211.42C139.798 211.42 140.131 211.273 140.371 210.98C140.625 210.687 140.811 210.3 140.931 209.82C141.051 209.327 141.138 208.773 141.191 208.16C141.245 207.547 141.285 206.933 141.311 206.32L141.491 202.4H149.631V213H147.711V203.52L148.171 204.08H142.731L143.171 203.5L143.031 206.44C142.991 207.373 142.918 208.247 142.811 209.06C142.705 209.873 142.538 210.587 142.311 211.2C142.098 211.813 141.798 212.293 141.411 212.64C141.038 212.987 140.551 213.16 139.951 213.16C139.778 213.16 139.591 213.14 139.391 213.1C139.205 213.073 138.998 213.033 138.771 212.98ZM159.044 206C160.391 206.013 161.417 206.32 162.124 206.92C162.831 207.52 163.184 208.367 163.184 209.46C163.184 210.607 162.797 211.493 162.024 212.12C161.251 212.733 160.157 213.033 158.744 213.02L154.144 213V202.4H156.064V205.98L159.044 206ZM158.584 211.56C159.451 211.573 160.104 211.4 160.544 211.04C160.997 210.68 161.224 210.147 161.224 209.44C161.224 208.747 161.004 208.24 160.564 207.92C160.124 207.6 159.464 207.433 158.584 207.42L156.064 207.38V211.54L158.584 211.56ZM166.448 213V202.4H168.368V206.9H174.408V202.4H176.328V213H174.408V208.56H168.368V213H166.448ZM191.341 213V202.4H193.261V213H191.341ZM185.641 206C186.988 206.013 188.008 206.32 188.701 206.92C189.408 207.52 189.761 208.367 189.761 209.46C189.761 210.607 189.375 211.493 188.601 212.12C187.841 212.733 186.748 213.033 185.321 213.02L180.861 213V202.4H182.781V205.98L185.641 206ZM185.181 211.56C186.035 211.573 186.688 211.4 187.141 211.04C187.595 210.68 187.821 210.147 187.821 209.44C187.821 208.747 187.595 208.24 187.141 207.92C186.701 207.6 186.048 207.433 185.181 207.42L182.781 207.38V211.54L185.181 211.56ZM196.114 213L200.674 207.08L200.654 208.06L196.314 202.4H198.454L201.774 206.76H200.954L204.274 202.4H206.374L201.974 208.1L201.994 207.08L206.594 213H204.414L200.914 208.36L201.694 208.48L198.254 213H196.114ZM223.265 213L219.165 207.84L220.745 206.88L225.525 213H223.265ZM215.585 213V202.4H217.505V213H215.585ZM216.925 208.52V206.88H220.425V208.52H216.925ZM220.905 207.92L219.125 207.68L223.185 202.4H225.245L220.905 207.92ZM226.579 212.98L226.699 211.36C226.792 211.373 226.879 211.387 226.959 211.4C227.039 211.413 227.112 211.42 227.179 211.42C227.605 211.42 227.939 211.273 228.179 210.98C228.432 210.687 228.619 210.3 228.739 209.82C228.859 209.327 228.945 208.773 228.999 208.16C229.052 207.547 229.092 206.933 229.119 206.32L229.299 202.4H237.439V213H235.519V203.52L235.979 204.08H230.539L230.979 203.5L230.839 206.44C230.799 207.373 230.725 208.247 230.619 209.06C230.512 209.873 230.345 210.587 230.119 211.2C229.905 211.813 229.605 212.293 229.219 212.64C228.845 212.987 228.359 213.16 227.759 213.16C227.585 213.16 227.399 213.14 227.199 213.1C227.012 213.073 226.805 213.033 226.579 212.98ZM241.951 213V202.4H243.871V210.12L250.371 202.4H252.111V213H250.191V205.28L243.711 213H241.951ZM261.358 213.12C260.224 213.12 259.224 212.887 258.358 212.42C257.504 211.953 256.838 211.313 256.358 210.5C255.891 209.687 255.658 208.753 255.658 207.7C255.658 206.647 255.884 205.713 256.338 204.9C256.804 204.087 257.438 203.453 258.238 203C259.051 202.533 259.964 202.3 260.978 202.3C262.004 202.3 262.911 202.527 263.698 202.98C264.484 203.433 265.098 204.073 265.538 204.9C265.991 205.713 266.218 206.667 266.218 207.76C266.218 207.84 266.211 207.933 266.198 208.04C266.198 208.147 266.191 208.247 266.178 208.34H257.158V206.96H265.178L264.398 207.44C264.411 206.76 264.271 206.153 263.978 205.62C263.684 205.087 263.278 204.673 262.758 204.38C262.251 204.073 261.658 203.92 260.978 203.92C260.311 203.92 259.718 204.073 259.198 204.38C258.678 204.673 258.271 205.093 257.978 205.64C257.684 206.173 257.538 206.787 257.538 207.48V207.8C257.538 208.507 257.698 209.14 258.018 209.7C258.351 210.247 258.811 210.673 259.398 210.98C259.984 211.287 260.658 211.44 261.418 211.44C262.044 211.44 262.611 211.333 263.118 211.12C263.638 210.907 264.091 210.587 264.478 210.16L265.538 211.4C265.058 211.96 264.458 212.387 263.738 212.68C263.031 212.973 262.238 213.12 261.358 213.12ZM269.996 213V202.4H271.916V206.9H277.956V202.4H279.876V213H277.956V208.56H271.916V213H269.996ZM286.51 213V203.58L286.99 204.08H282.63V202.4H292.31V204.08H287.97L288.43 203.58V213H286.51ZM299.144 213.12C298.077 213.12 297.131 212.887 296.304 212.42C295.477 211.953 294.824 211.313 294.344 210.5C293.864 209.673 293.624 208.74 293.624 207.7C293.624 206.647 293.864 205.713 294.344 204.9C294.824 204.087 295.477 203.453 296.304 203C297.131 202.533 298.077 202.3 299.144 202.3C300.197 202.3 301.137 202.533 301.964 203C302.804 203.453 303.457 204.087 303.924 204.9C304.404 205.7 304.644 206.633 304.644 207.7C304.644 208.753 304.404 209.687 303.924 210.5C303.457 211.313 302.804 211.953 301.964 212.42C301.137 212.887 300.197 213.12 299.144 213.12ZM299.144 211.44C299.824 211.44 300.431 211.287 300.964 210.98C301.511 210.673 301.937 210.24 302.244 209.68C302.551 209.107 302.704 208.447 302.704 207.7C302.704 206.94 302.551 206.287 302.244 205.74C301.937 205.18 301.511 204.747 300.964 204.44C300.431 204.133 299.824 203.98 299.144 203.98C298.464 203.98 297.857 204.133 297.324 204.44C296.791 204.747 296.364 205.18 296.044 205.74C295.724 206.287 295.564 206.94 295.564 207.7C295.564 208.447 295.724 209.107 296.044 209.68C296.364 210.24 296.791 210.673 297.324 210.98C297.857 211.287 298.464 211.44 299.144 211.44ZM308.217 213V202.4H313.137C314.377 202.4 315.35 202.64 316.057 203.12C316.777 203.587 317.137 204.253 317.137 205.12C317.137 205.987 316.797 206.66 316.117 207.14C315.45 207.607 314.563 207.84 313.457 207.84L313.757 207.32C315.023 207.32 315.963 207.553 316.577 208.02C317.19 208.487 317.497 209.173 317.497 210.08C317.497 211 317.15 211.72 316.457 212.24C315.777 212.747 314.73 213 313.317 213H308.217ZM310.097 211.52H313.177C313.977 211.52 314.577 211.4 314.977 211.16C315.377 210.907 315.577 210.507 315.577 209.96C315.577 209.4 315.39 208.993 315.017 208.74C314.657 208.473 314.083 208.34 313.297 208.34H310.097V211.52ZM310.097 206.96H312.977C313.71 206.96 314.263 206.827 314.637 206.56C315.023 206.28 315.217 205.893 315.217 205.4C315.217 204.893 315.023 204.513 314.637 204.26C314.263 204.007 313.71 203.88 312.977 203.88H310.097V206.96ZM145.194 245L141.094 239.84L142.674 238.88L147.454 245H145.194ZM137.514 245V234.4H139.434V245H137.514ZM138.854 240.52V238.88H142.354V240.52H138.854ZM142.834 239.92L141.054 239.68L145.114 234.4H147.174L142.834 239.92ZM156.572 245V242.76L156.472 242.34V238.52C156.472 237.707 156.232 237.08 155.752 236.64C155.285 236.187 154.578 235.96 153.632 235.96C153.005 235.96 152.392 236.067 151.792 236.28C151.192 236.48 150.685 236.753 150.272 237.1L149.472 235.66C150.018 235.22 150.672 234.887 151.432 234.66C152.205 234.42 153.012 234.3 153.852 234.3C155.305 234.3 156.425 234.653 157.212 235.36C157.998 236.067 158.392 237.147 158.392 238.6V245H156.572ZM153.092 245.12C152.305 245.12 151.612 244.987 151.012 244.72C150.425 244.453 149.972 244.087 149.652 243.62C149.332 243.14 149.172 242.6 149.172 242C149.172 241.427 149.305 240.907 149.572 240.44C149.852 239.973 150.298 239.6 150.912 239.32C151.538 239.04 152.378 238.9 153.432 238.9H156.792V240.28H153.512C152.552 240.28 151.905 240.44 151.572 240.76C151.238 241.08 151.072 241.467 151.072 241.92C151.072 242.44 151.278 242.86 151.692 243.18C152.105 243.487 152.678 243.64 153.412 243.64C154.132 243.64 154.758 243.48 155.292 243.16C155.838 242.84 156.232 242.373 156.472 241.76L156.852 243.08C156.598 243.707 156.152 244.207 155.512 244.58C154.872 244.94 154.065 245.12 153.092 245.12ZM175.229 245L171.849 239.84L173.429 238.88L177.509 245H175.229ZM169.649 240.52V238.88H173.089V240.52H169.649ZM173.609 239.92L171.789 239.68L175.169 234.4H177.229L173.609 239.92ZM163.329 245H161.049L165.109 238.88L166.689 239.84L163.329 245ZM170.229 245H168.309V234.4H170.229V245ZM168.889 240.52H165.469V238.88H168.889V240.52ZM164.949 239.92L161.329 234.4H163.369L166.749 239.68L164.949 239.92ZM187.662 244.1V236.08H183.062L182.962 238.12C182.935 238.787 182.888 239.433 182.822 240.06C182.768 240.673 182.675 241.24 182.542 241.76C182.422 242.28 182.242 242.707 182.002 243.04C181.762 243.373 181.442 243.58 181.042 243.66L179.142 243.32C179.555 243.333 179.888 243.2 180.142 242.92C180.395 242.627 180.588 242.227 180.722 241.72C180.868 241.213 180.975 240.64 181.042 240C181.108 239.347 181.162 238.673 181.202 237.98L181.362 234.4H189.582V244.1H187.662ZM178.722 247.46V243.32H191.202V247.46H189.402V245H180.542V247.46H178.722ZM204.983 245V234.4H206.903V245H204.983ZM199.283 238C200.63 238.013 201.65 238.32 202.343 238.92C203.05 239.52 203.403 240.367 203.403 241.46C203.403 242.607 203.016 243.493 202.243 244.12C201.483 244.733 200.39 245.033 198.963 245.02L194.503 245V234.4H196.423V237.98L199.283 238ZM198.823 243.56C199.676 243.573 200.33 243.4 200.783 243.04C201.236 242.68 201.463 242.147 201.463 241.44C201.463 240.747 201.236 240.24 200.783 239.92C200.343 239.6 199.69 239.433 198.823 239.42L196.423 239.38V243.54L198.823 243.56ZM211.436 245V234.4H213.356V242.12L219.856 234.4H221.596V245H219.676V237.28L213.196 245H211.436ZM216.396 233.02C215.422 233.02 214.656 232.787 214.096 232.32C213.549 231.84 213.269 231.153 213.256 230.26H214.556C214.569 230.767 214.736 231.167 215.056 231.46C215.389 231.753 215.829 231.9 216.376 231.9C216.922 231.9 217.362 231.753 217.696 231.46C218.029 231.167 218.202 230.767 218.216 230.26H219.556C219.542 231.153 219.256 231.84 218.696 232.32C218.136 232.787 217.369 233.02 216.396 233.02ZM232.294 245V234.4H240.094V236.08H233.754L234.214 235.64V245H232.294ZM246.93 245.12C245.864 245.12 244.917 244.887 244.09 244.42C243.264 243.953 242.61 243.313 242.13 242.5C241.65 241.673 241.41 240.74 241.41 239.7C241.41 238.647 241.65 237.713 242.13 236.9C242.61 236.087 243.264 235.453 244.09 235C244.917 234.533 245.864 234.3 246.93 234.3C247.984 234.3 248.924 234.533 249.75 235C250.59 235.453 251.244 236.087 251.71 236.9C252.19 237.7 252.43 238.633 252.43 239.7C252.43 240.753 252.19 241.687 251.71 242.5C251.244 243.313 250.59 243.953 249.75 244.42C248.924 244.887 247.984 245.12 246.93 245.12ZM246.93 243.44C247.61 243.44 248.217 243.287 248.75 242.98C249.297 242.673 249.724 242.24 250.03 241.68C250.337 241.107 250.49 240.447 250.49 239.7C250.49 238.94 250.337 238.287 250.03 237.74C249.724 237.18 249.297 236.747 248.75 236.44C248.217 236.133 247.61 235.98 246.93 235.98C246.25 235.98 245.644 236.133 245.11 236.44C244.577 236.747 244.15 237.18 243.83 237.74C243.51 238.287 243.35 238.94 243.35 239.7C243.35 240.447 243.51 241.107 243.83 241.68C244.15 242.24 244.577 242.673 245.11 242.98C245.644 243.287 246.25 243.44 246.93 243.44ZM263.165 244.1V236.08H258.565L258.465 238.12C258.438 238.787 258.392 239.433 258.325 240.06C258.272 240.673 258.178 241.24 258.045 241.76C257.925 242.28 257.745 242.707 257.505 243.04C257.265 243.373 256.945 243.58 256.545 243.66L254.645 243.32C255.058 243.333 255.392 243.2 255.645 242.92C255.898 242.627 256.092 242.227 256.225 241.72C256.372 241.213 256.478 240.64 256.545 240C256.612 239.347 256.665 238.673 256.705 237.98L256.865 234.4H265.085V244.1H263.165ZM254.225 247.46V243.32H266.705V247.46H264.905V245H256.045V247.46H254.225Z" fill="#241D26"/>
<defs>
<filter id="filter0_d_105_514" x="0" y="0" width="403" height="403" filterUnits="userSpaceOnUse" color-interpolation-filters="sRGB">
<feFlood flood-opacity="0" result="BackgroundImageFix"/>
<feColorMatrix in="SourceAlpha" type="matrix" values="0 0 0 0 0 0 0 0 0 0 0 0 0 0 0 0 0 0 127 0" result="hardAlpha"/>
<feOffset dy="4"/>
<feGaussianBlur stdDeviation="7.5"/>
<feComposite in2="hardAlpha" operator="out"/>
<feColorMatrix type="matrix" values="0 0 0 0 0 0 0 0 0 0 0 0 0 0 0 0 0 0 0.1 0"/>
<feBlend mode="normal" in2="BackgroundImageFix" result="effect1_dropShadow_105_514"/>
<feBlend mode="normal" in="SourceGraphic" in2="effect1_dropShadow_105_514" result="shape"/>
</filter>
</defs>
</svg>
