<svg width="32" height="32" viewBox="0 0 32 32" fill="none" xmlns="http://www.w3.org/2000/svg">
<path d="M30.8557 29.226L30.8555 29.2258L23.2474 21.7361C25.2299 19.5156 26.444 16.6172 26.444 13.4258C26.444 6.4477 20.7006 0.8 13.622 0.8C6.54335 0.8 0.8 6.4477 0.8 13.4258C0.8 20.3946 6.54345 26.0422 13.622 26.0422C16.6167 26.0422 19.3694 25.0288 21.5519 23.3325L29.2018 30.861C29.659 31.3126 30.3979 31.3132 30.8549 30.8618C31.3164 30.4163 31.3134 29.6781 30.8557 29.226ZM13.622 23.729C7.83085 23.729 3.14208 19.1171 3.14208 13.4258C3.14208 7.73424 7.83108 3.11314 13.622 3.11314C19.4129 3.11314 24.1029 7.73426 24.1029 13.4258C24.1029 19.1171 19.4132 23.729 13.622 23.729Z" fill="#848484" stroke="#848484" stroke-width="0.4"/>
</svg>
