<svg width="25" height="25" viewBox="0 0 25 25" fill="none" xmlns="http://www.w3.org/2000/svg">
<path d="M12.5 0C5.59639 0 0 5.59639 0 12.5C0 19.4036 5.59639 25 12.5 25C19.4036 25 25 19.4036 25 12.5C25 5.59639 19.4036 0 12.5 0Z" fill="#0077FF"/>
<path d="M13.2974 17.8571C7.19626 17.8571 3.71629 14.1034 3.57129 7.85712H6.62741C6.7278 12.4417 8.98085 14.3836 10.7655 14.784V7.85712H13.6431V11.8111C15.4054 11.6409 17.2569 9.8391 17.8815 7.85712H20.7592C20.5238 8.88503 20.0547 9.8583 19.381 10.716C18.7074 11.5738 17.8438 12.2976 16.8442 12.8421C17.96 13.3397 18.9455 14.0439 19.7357 14.9084C20.5259 15.7728 21.1028 16.7779 21.4284 17.8571H18.2608C17.9685 16.9197 17.3744 16.0806 16.5529 15.4448C15.7315 14.8091 14.7193 14.4052 13.6431 14.2835V17.8571H13.2974Z" fill="white"/>
</svg>
