<svg width="25" height="25" viewBox="0 0 25 25" fill="none" xmlns="http://www.w3.org/2000/svg">
<g clip-path="url(#clip0_105_486)">
<path d="M12.5 0C5.59639 0 0 5.59639 0 12.5C0 19.4036 5.59639 25 12.5 25C19.4036 25 25 19.4036 25 12.5C25 5.59639 19.4036 0 12.5 0Z" fill="#40B3E0"/>
<path d="M18.5821 7.19052L16.3495 18.4471C16.3495 18.4471 16.0373 19.2277 15.1786 18.853L10.0265 14.903L8.15302 13.9975L4.99931 12.9358C4.99931 12.9358 4.51532 12.7641 4.46845 12.3894C4.42167 12.0147 5.01493 11.8118 5.01493 11.8118L17.5517 6.89384C17.5517 6.89384 18.5821 6.4411 18.5821 7.19052Z" fill="white"/>
<path d="M9.63076 18.3206C9.63076 18.3206 9.48037 18.3066 9.29297 17.7132C9.10566 17.1199 8.15332 13.9975 8.15332 13.9975L15.7253 9.18889C15.7253 9.18889 16.1625 8.92346 16.1469 9.18889C16.1469 9.18889 16.2249 9.23567 15.9907 9.45422C15.7565 9.67288 10.0424 14.8093 10.0424 14.8093" fill="#D2E5F1"/>
<path d="M12.0023 16.4175L9.96445 18.2755C9.96445 18.2755 9.80518 18.3964 9.63086 18.3207L10.0211 14.8694" fill="#B5CFE4"/>
</g>
<defs>
<clipPath id="clip0_105_486">
<rect width="25" height="25" fill="white"/>
</clipPath>
</defs>
</svg>
